<?xml version="1.0" standalone="yes"?>
<svg width="512" height="512">
<path style="fill:#000000; stroke:none;" d="M0 0L0 223L2 223C2 197.525 12.6577 170.834 23.1204 148C50.6225 87.9785 100.218 43.7675 160 17.1975C180.613 8.03622 203.014 7.20316 224 1L203 0L158 0L0 0z"/>
<path style="fill:#c19424; stroke:none;" d="M6 205L5 205L5 202L4 202C3.90992 210.161 1.09504 218.073 0.128858 226.09C-2.05985 244.25 -1.24947 265.708 0.0540123 283.961C2.72656 321.384 18.022 359.138 37.0995 391C47.2823 408.006 63.5049 432.375 82 441C75.552 430.324 64.0929 421.153 55.9738 411.576C39.6488 392.318 19.102 359.665 18 334L24 336L19 332L17 324L24 314L21 313L21 305L17 306L16 302L20 302C19.9865 298.806 20.4028 296.729 17 296L18 293L21 295L22 292L11 282L14 275L14 274L13 271L15 273L14 261L17 262L16 257C7.97872 254.563 12.6609 240.701 10 234L19 227L19 230L20 230L20 222L21 222L23 224L21 215L24 216L24 210L29 210L30 206L32 207L33 204L28 204L28 203L32 203L30 200L33 200L33 199L34 194C25.9088 193.904 19.3524 183.07 30.0008 182.751C33.1082 182.658 36.2636 185.757 39 187C33.0662 172.937 43.7447 178.452 47 168L44 170C43.7986 164.627 43.7822 159.822 49 157L47 152L51 154L52 154L53 151L54 155L55 155L54 144L56 145L54 143L54 142L55 140L58 141L58 135L63 127L65 128L66 128L64 122C71.4932 124.712 75.358 118.46 72 112L81 112L81 111L77 109L83 103L93 104L94 99C100.736 100.274 108.821 88.8893 113.944 84.8333C116.304 82.9651 120.069 80.8761 120 78L124 78L125 76L125 75L122 74L123 71L126 72L127 69L129 71L130 71L138 62L141 64L139 60C142.284 60.9383 147.275 63.5414 148 59L149 62L149 63C152.798 62.1821 150.395 60.3467 152.583 58.1111C155.799 54.8265 164.565 54.8579 158 49L161 48L161 50L176 46L175 50L175 51L181 51L179 47L189 44L188 40L198 44L199 44L201 44L202 44L201 40C205.917 37.3469 204.362 35.6501 211 38L212 35L216 34L216 37L221 40L222 40L223 40L223 38L224 38L225 38L225 40L226 40L227 40C237.024 31.2183 257.577 42.7706 268 36L278 37L277 40L296 39C299.452 36.3991 302.217 37.5511 306 39L305 36L309 38C315.012 35.3996 325.226 38.5101 331 41L332 41L346 40L344 42L352 45L350 46L350 47L358 50C358.39 51.8545 360.105 54.0694 360 51L374 61L378 59C381.199 63.8552 386.926 61.7802 392 61L400 69C401.806 72.2012 403.42 72.4026 407 72L407 76L414 81L419 80C417.535 82.9116 417.089 85.4349 421 85L422 81C421.731 88.9221 424.657 90.0145 429 96L430 96L431 96L437 94L443 106L448 106L448 107L446 108L453 110L453 111L450 111L456 120L465 125L466 127L465 131C472.495 134.663 478.395 145.791 478 154L481 155L482 160L480 159L480 160L489 175L488 178C494.77 182.388 494.653 199.582 494 207C500.92 210.056 494.521 222.552 501 224L499 226L499 227L502 231L507 228L508 228L512 234C511.997 205.991 501.249 173.219 489.255 148C442.204 49.0612 336.585 -12.1742 227 0.128845C204.7 2.63245 182.8 9.28745 161.715 17.0054C100.658 39.3546 50.101 88.1167 23.1204 147C15.1446 164.407 4.8572 185.391 6 205z"/>
<path style="fill:#000000; stroke:none;" d="M288 0L288 2C298.375 2 313.347 2.77426 322 9C326.798 6.72263 334.078 11.3518 338.999 12.8472C356.712 18.2297 373.085 27.2274 389 36.5509C434.636 63.2865 468.984 105.649 491.167 153C500.977 173.94 510 199.693 510 223L512 223L512 0L288 0z"/>
<path style="fill:#8f6f19; stroke:none;" d="M293 2L293 3L302 3L293 2z"/>
<path style="fill:#81620e; stroke:none;" d="M201 4L201 5L209 5L201 4z"/>
<path style="fill:#352f0f; stroke:none;" d="M323 7L323 8L327 8L323 7z"/>
<path style="fill:#8a6016; stroke:none;" d="M179 10L179 11L184 11L179 10z"/>
<path style="fill:#f9cb21; stroke:none;" d="M160 16L160 18L163 18L163 16L160 16z"/>
<path style="fill:#c79c2c; stroke:none;" d="M214 34L212 35L211 38C205.519 35.0383 204.932 36.1096 201 40L202 44L201 44L200 42L198 44L188 40L189 44L179 47L181 51L175 51L175 50L178 50L176 46L161 50L161 48L158 49C160.916 53.6245 152.93 60.2633 149 63L149 62L151 61L148 59L147 62L139 60L141 64L138 62L130 71L129 71L127 69L126 72L123 71C123.088 73.726 121.821 74.6147 125 75L125 76L124 78L120 78C120 80.7385 115.337 83.0994 113 84.8333C107.567 88.8646 101.075 99 94 99L93 104L83 103L77 109L81 111L81 112L72 112C74.3511 118.199 71.5179 124.319 64 122L66 128L63 127L58 135L60 137L58 141L55 140L54 142L56 145L54 144L54 145L55 155L54 155L53 151L52 154L51 154L47 152L49 157C43.2691 158.904 43.5703 164.844 44 170L47 168C42.492 176.846 31.3054 174.353 39 187L31 196L33 200L30 200L30 201L32 202L32 203L28 203L28 204L33 204L32 207L30 206L29 210L24 210L24 216L21 215L23 224L21 222L20 222L19 230L19 227L18 227L10 234C11.7853 240.554 8.05433 255.674 16 257L17 262L14 261L15 273L13 271L14 274L14 275L11 282C15.2199 286.842 14.4247 291.216 22 292L21 295L18 293L17 296L20 302L16 302L17 306L21 305L24 314L21 315L17 324L19 332L24 336L18 334C18.6024 363.184 42.9151 397.343 61.716 418.272C66.5623 423.666 69.9801 429.621 76 434L72 428L76 425L73 419L76 420L73 417L73 416L77 417L77 413C68.7547 408.701 73.3482 405.849 73 399L78 401L70 391L73 390L69 384L68 384L68 388L67 388L73 382L76 383L73 378L83 383L63 340L62 340L61 343C51.6704 316.595 43.2882 290.521 42.0394 262C39.4668 203.25 69.0988 140.121 111 100.039C214.622 0.917358 398.868 33.6115 456.985 167C471.913 201.262 478 236.838 478 274L481 274L481 280L478 286L476 289L479 289C478.323 292.215 474.44 296.447 479 297L479 298L476 303L480 300L479 307L479 308C480.758 310.816 480.373 312.711 478 315L478 319L479 322L482 323L480 325L482 328L479 327L476 329C476.567 333.657 474.94 335.63 471 338L473 341L470 342L471 345L471 346L473 351L471 354L465 354L466 357C463.525 357.513 463.425 357.604 464 360L468 359L458 371L463 372L460 381L460 382L465 382L462 385C461.766 388.879 459.965 390.892 456 391C453.201 397.926 452.931 402.955 446 407L447 410L442 410L440 421L441 422L444 421C441.166 426.236 436.626 428.727 432.505 432.749C421.595 443.399 410.418 456.437 396 462L396 460C392.124 461.23 386.21 461.817 385 466L375 467L376 470L357 472C347.423 479.536 328.33 474.242 317 475.456C306.551 476.576 296.581 480.198 286 480.91C255.633 482.956 224.99 480.884 195 477.285C184.103 475.978 172.987 476.364 162 475.46C156.914 475.041 150.932 475.792 148 471C144.204 470.9 134.56 471.339 134 467L133 467L127 468L125 471L128 474L123 473C125.077 480.016 137.257 485.296 144 487L140 483L140 482C187.958 491.851 240.015 486.554 288.83 485.062C317.685 484.181 345.666 485.845 374 480L368 485L368 486C376.186 484.523 383.926 478.647 391 474.452C410.831 462.694 432.878 446.815 446.657 428C455.905 415.373 458.546 399.857 471 389L470 383L486 364L485 360C489.194 359.101 492.344 343.853 491 340L495 340L496 329L500 329L499 334L501 334L509 288L512 288L512 234L508 228L507 228L502 231L499 227L499 226L501 224L498 223C499.539 219.252 498.786 208.02 494 207C495.244 201.195 494.426 179.377 488 178L489 175L480 159L482 160L480 158L481 155L478 154C479.213 146.212 472.862 133.321 465 131L466 127L465 125L456 120C453.937 117.073 448.894 114.275 453 111L453 110C451.255 109.676 445.444 109.326 448 107L448 106L443 106L441 104L437 94L431 96L430 96L429 96L422 81L419 82L421 85L418 86L419 80L414 81L407 76L407 72L400 69L392 61C386.849 61.2615 381.951 62.8102 378 59L374 61L360 51C360 54.2928 358.527 51.6292 358 50L350 47L350 46L352 45C349.338 44.2295 343.565 43.4789 346 40L332 41L331 41C326.615 38.0291 313.456 34.7831 309 38L305 36L306 39C302.667 37.2656 298.758 35.8433 296 39L277 40L278 37L268 36L237 37.581L227 40L226 40L225 40L225 38L224 38L223 38L223 40L222 40L221 40L216 37L217 35L216 34L214 34z"/>
<path style="fill:#d5b752; stroke:none;" d="M243 41L243 42L277 42L243 41z"/>
<path style="fill:#f9ef82; stroke:none;" d="M142 75L142 76C148.606 76.0612 153.275 71.0304 159 68.3271C169.908 63.1769 181.828 58.7217 193.039 54.3974C217.32 45.0319 247.159 42.4436 273 44.0903C299.909 45.805 327.819 51.7053 352 64.2454C359.118 67.9368 367.178 71.1902 373.83 75.6744C380.399 80.1024 387.948 88.0843 396 89C384.075 74.3523 361.081 65.037 344 57.9892C276.199 30.0133 204.803 40.1741 142 75z"/>
<path style="fill:#f9e26c; stroke:none;" d="M189 55L189 56L200 57L207 57L208 62L201 65C215.576 62.857 230.391 56.6857 245 56.0394C269.589 54.9515 299.587 58.4741 323 66.2454C337.594 71.0895 350.733 79.7765 365 85L361 82L363 79L352 72L356 72L356 71L343 66L343 63L337 63L344 61C335.056 53.6424 319.901 52.2698 309.039 49.4475C268.726 38.9725 228.725 45.9148 189 55z"/>
<path style="fill:#f8d142; stroke:none;" d="M90 128L91 128L111 109C113.457 103.752 117.296 100.898 123 100L116 113C124.341 112.645 135.007 99.4158 142 94.4275C157.185 83.5956 173.749 75.8757 191 69.1026C196.614 66.8986 202.025 62.4431 208 62L206 60L207 57L200 57C194.55 51.2652 174.094 61.6454 168 64.2855C144.996 74.2522 123.361 88.5807 106.09 106.996C100.753 112.687 92.3656 120.564 90 128z"/>
<path style="fill:#fff9d3; stroke:none;" d="M95 143L98 143L99 143C103.149 132.379 117.007 121.992 125 114C143.991 95.0099 168.346 80.0179 194 71.7354C200.166 69.7446 206.997 70.5562 213 68.6281C217.64 67.1379 221.449 63.7191 226 61.9869C237.15 57.7425 249.245 57 261 57C247.832 51.4744 226.084 59.1263 213 62.4059C175.57 71.7874 138.486 89.6549 113.015 119.576C106.968 126.679 98.3884 134.239 95 143z"/>
<path style="fill:#ebf6f5; stroke:none;" d="M106 139L116 123C110.189 127.43 100.721 135.821 99 143L98 143L97 141C80.4942 155.604 66.017 188.937 66 211L67 211L77 184L78 184L78 196L79 196C79 179.025 88.4635 142.042 111 143L109 146L125 140C117.936 148.656 114 152.218 114 164L125 148C125.348 159.487 139.835 159.672 142 149C156.545 154.476 152 167.121 152 180C162.553 177.375 167.417 163.744 175.576 157.17C194.909 141.591 211.717 128.694 236 121.599C254.425 116.215 272.075 118.425 290 123.834C298.156 126.295 309.916 133.352 318 133L348.535 164.171L369 195L375 166L385 163C385.326 170.442 392.314 181.757 400.486 173.427C403.875 169.973 401.164 164.707 403.912 161.451C405.307 159.799 407.373 160.549 408.96 161.461C418.596 167.001 411.829 179.934 419 185C420.46 173.445 418.201 159.886 405.83 154.664C400.627 152.467 394.092 154.521 389.263 151.86C382.933 148.373 377.563 141.309 371.255 137.221C360.109 129.998 346.942 125.146 335 119.506C324.349 114.477 317.783 110.934 310.865 100.87C308.465 97.3781 304.88 93.1338 307 89L307 88L304 82C321.694 89.4806 332.652 106.094 348.83 116.742C372.021 132.006 399.784 138.93 419.272 160.455C425.111 166.905 426.639 177.056 429.529 185C439.115 211.344 442.605 244.854 434 272C442.79 269.289 446.576 258.131 447.92 250C451.082 230.873 449.228 210.211 442.117 192.17C436.007 176.669 427.874 160.353 415 149.3C395.395 132.468 369.336 127.023 349 111.497C329.915 96.9254 316.519 74.8154 294 64.875C264.514 51.8591 225.448 53.495 201.13 77.2091C188.702 89.3278 182.323 105.781 167.996 116.582C157.255 124.679 141.497 125.48 129 129.166C120.904 131.554 113.873 136.41 106 139z"/>
<path style="fill:#f8ec9a; stroke:none;" d="M281 59L281 60L293 60L281 59z"/>
<path style="fill:#faf2d1; stroke:none;" d="M283 60L283 61C288.707 62.8236 294.237 66.6795 300 68.0046C306.157 69.4204 312.745 67.025 319 68.8519C352.559 78.6529 383.779 98.63 406.741 125C419.523 139.68 432.015 157.063 439.727 175C442.679 181.866 444.59 198.297 451 202C450.2 183.648 439.749 165.334 430.449 150C400.435 100.51 342.406 60 283 60z"/>
<path style="fill:#ecca45; stroke:none;" d="M337 63L343 63L343 66L356 71L356 72L352 72L363 79L361 82C406.775 105.842 433.699 151.885 451 198L452 198L447 170L448 170L449 173L456 172C450.101 151.523 434.159 129.498 419.907 114C412.468 105.912 401.042 98.867 396 89C388.404 87.4359 381.044 80.0518 374.715 75.6744C368.381 71.2946 360.723 68.5284 354 64.7847C349.577 62.3221 340.518 57.729 337 63z"/>
<path style="fill:#e5c89a; stroke:none;" d="M301 68L311 70.6235L337 76C327.026 67.9501 313.086 68 301 68z"/>
<path style="fill:#e8c989; stroke:none;" d="M113 131C132.446 117.302 146.9 96.3859 169 85.8248C176.295 82.3388 186.115 77.9621 194 76.1196C199.015 74.9476 207.343 73.5926 210 69C182.676 69.5641 150.567 89.0773 131 107.093C123.67 113.842 115.489 121.006 113 131z"/>
<path style="fill:#a14a0a; stroke:none;" d="M305 70C309.783 78.1038 325.531 78.0986 334 81.0803C353.557 87.9658 367.63 104.813 386 113C382.648 105.816 375.331 101.508 369 97.1165C352.284 85.5209 325.883 70.1867 305 70z"/>
<path style="fill:#b8976b; stroke:none;" d="M202 73L207 72L202 73z"/>
<path style="fill:#c4803a; stroke:none;" d="M320 73L320 74L324 75L324 74L320 73z"/>
<path style="fill:#9a470a; stroke:none;" d="M112 135C119.171 131.506 124.517 123.241 130.499 117.885C141.8 107.769 153.85 99.1926 167 91.625C177.715 85.4584 196.139 83.5297 204 74C177.974 76.3413 146.923 97.0848 129 115C123.271 120.726 114.244 127.004 112 135z"/>
<path style="fill:#e0a96d; stroke:none;" d="M325 75L325 76C339.619 79.4628 354.734 87.9059 367 96.4136C373.586 100.982 381.051 109.773 389 111C375.125 91.1237 348.915 76.027 325 75z"/>
<path style="fill:#f6f0b1; stroke:none;" d="M45 236L46 236C48.8772 228.317 48.5066 219.901 50.5833 212C55.8459 191.98 62.047 172.059 72.25 154.015C83.6955 133.772 98.7008 114.131 115.83 98.3256C124.39 90.4273 136.565 84.6808 144 76C128.751 78.0281 111.142 97.9826 101.576 109C71.6366 143.479 45.3897 188.922 45 236z"/>
<path style="fill:#ec9d51; stroke:none;" d="M189 77L189 78L196 77L189 77z"/>
<path style="fill:#c97d11; stroke:none;" d="M312 76L312 77L366.985 102.336L389 118C384.913 110.864 376.64 105.727 370 101.117C353.428 89.609 332.875 76.0161 312 76z"/>
<path style="fill:#db8416; stroke:none;" d="M183 87L200 78C193.592 78.8671 186.611 81.3281 183 87z"/>
<path style="fill:#dfa215; stroke:none;" d="M314 78C322.014 86.7733 343.309 95.5135 355 97C348.115 87.0049 325.613 79.87 314 78z"/>
<path style="fill:#fce2b3; stroke:none;" d="M197 81L193 88L197 81z"/>
<path style="fill:#e8b725; stroke:none;" d="M317 81C325.117 91.7401 335.047 92.1635 345 99L348 98L352 100C353.724 105.537 362.422 110.049 368 110C371.367 117.667 380.217 118.971 386.537 123.277C397.032 130.427 401.885 142.878 414 148C409.132 130.389 382.929 109.822 366.985 101.846C359.909 98.3064 352.013 97.6603 345 94.412C335.578 90.048 327.066 83.8775 317 81z"/>
<path style="fill:#e7ad1f; stroke:none;" d="M194 82C190.046 85.0579 184.418 86.0212 180 88.6705C168.055 95.8325 156.265 103.698 144 110.33C133.735 115.881 122.375 120.475 117 132L137 118.119L151 108C155.455 108.162 158.943 105.154 163 103.38C173.142 98.9457 191.136 92.1297 196 82L194 82z"/>
<path style="fill:#d9ecee; stroke:none;" d="M304 82L307 88L307 89C301.752 94.0723 317.602 112.01 322.286 114.502C337.732 122.717 354.376 128.153 369.676 136.735C376.796 140.728 381.744 147.853 388.47 151.86C392.194 154.079 397.816 152.871 401.996 153.823C408.834 155.379 413.639 161.168 417 167L420 165L424 170C422.305 159.279 412.109 153.326 404.015 147.282C383.425 131.909 357.832 124.217 338.129 107.857C326.64 98.3181 318.493 86.5962 304 82z"/>
<path style="fill:#e4a751; stroke:none;" d="M161 92L174 85C169.037 83.6389 163.318 87.7736 161 92z"/>
<path style="fill:#cb6909; stroke:none;" d="M137 113L172 92.6805L183 85C168.186 86.8459 145.506 100.959 137 113z"/>
<path style="fill:#de8f1a; stroke:none;" d="M141 112L179 90C175.232 89.1332 172.32 92.0264 169 93.6644C160.67 97.7743 145.855 103.948 141 112z"/>
<path style="fill:#f8e88e; stroke:none;" d="M396 89C399.033 98.6994 412.124 106.815 418.96 114C430.664 126.303 442.25 142.356 449 158L452 157C443.337 133.202 418.665 100.695 396 89z"/>
<path style="fill:#f9cf28; stroke:none;" d="M151 108L122 131L128 130C132.094 122.615 145.335 124.152 152.715 121.466C162.391 117.944 166.951 110.64 174.456 104.857C181.022 99.7981 185.891 98.2501 190 90L151 108z"/>
<path style="fill:#f1cc38; stroke:none;" d="M328 92C343.36 113.803 375.938 131.069 401 139C394.887 123.224 376.159 122.845 368 110C362.378 109.718 354.55 105.004 352 100L348 98L345 99L328 92z"/>
<path style="fill:#fbf4b5; stroke:none;" d="M188 93C180.291 102.713 172.333 113.363 161 119L161 120C169.448 117.969 188.803 102.665 188 93z"/>
<path style="fill:#dac19c; stroke:none;" d="M374 96C378.564 103.543 389.989 112.353 398 116C393.706 107.956 382.48 99.2621 374 96z"/>
<path style="fill:#edc025; stroke:none;" d="M111 109C105.318 109.99 102.296 118.081 97.8696 121.744C82.4993 134.465 73.2636 150.747 65.2191 169C61.9085 176.512 57.4291 183.621 57 192L62 192L64 189L63 185L69 184L67 177L74 176L75 170L78 172C83.3907 159.035 90.945 146.932 99.7932 136.039C105.781 128.669 114.081 121.733 118 113L123 100C117.123 100.534 112.67 103.12 111 109z"/>
<path style="fill:#fbda49; stroke:none;" d="M128 129C147.2 127.432 169.141 119.876 180 103C172.523 103.686 171.93 109.041 166.626 113.157C159.063 119.027 150.002 121.659 141 124.124C136.085 125.47 131.022 124.211 128 129z"/>
<path style="fill:#ab670d; stroke:none;" d="M386 111C386.317 119.847 405.135 137.236 413 141C411.39 130.569 394.418 116.93 386 111z"/>
<path style="fill:#c18538; stroke:none;" d="M387 111L404 128C401.606 121.101 393.862 113.333 387 111z"/>
<path style="fill:#d8b67b; stroke:none;" d="M389 111L389 112C401.32 120.694 411.566 135.903 420.394 148C423.735 152.577 423.35 160.372 428 163C427.958 147.835 418.128 140.99 409.455 129.999C404.094 123.204 397.739 113.43 389 111z"/>
<path style="fill:#d5c7a9; stroke:none;" d="M398 116L408 127L398 116z"/>
<path style="fill:#e4dbcf; stroke:none;" d="M165 171L163 181L164 181C186.982 128.752 259.259 110.468 308 134.992C337.19 149.678 356.334 177.76 368 207L369 207C367.966 174.354 336.556 155.414 318 133C312.933 132.913 309.664 129.127 305 127.661C293.884 124.168 280.57 119.417 269 118.174C248.28 115.947 215.722 123.634 199.09 136.415C191.44 142.293 181.444 150.316 174.847 157.299C170.818 161.563 169.641 167.067 165 171z"/>
<path style="fill:#d8b977; stroke:none;" d="M204 139C209.66 141.82 218.562 134.517 224 132.428C237.361 127.295 250.911 126.977 265 127C282.815 127.029 299.924 133.514 315 142.745C321.545 146.753 327.068 152.825 334 156C329.264 143.878 309.795 134.392 298 130.754C265.186 120.632 234.237 121.726 204 139z"/>
<path style="fill:#f5e295; stroke:none;" d="M181 160L181 161C196.474 158.696 206.219 141.084 221.015 135.559C271.533 116.694 316.66 141.639 350 179C350.644 174.561 346.586 170.309 343.905 167C336.403 157.741 327.083 149.74 317 143.37C289.391 125.926 250.582 120.039 220 133.666C204.94 140.377 194.221 150.696 181 160z"/>
<path style="fill:#d7c9a9; stroke:none;" d="M408 127L416 137L408 127z"/>
<path style="fill:#fce065; stroke:none;" d="M195 154L200 151C201.857 153.583 213.496 144.431 217 142.833C233.289 135.405 248.282 132.959 266 133C268.566 133.006 285.573 135.025 283 138L283 139L302 143L303 139C276.005 129.868 254.746 126.726 226.91 133.831C216.234 136.556 200.516 143.957 195 154z"/>
<path style="fill:#efbb5b; stroke:none;" d="M114 135L125 131C120.672 129.978 116.855 131.762 114 135z"/>
<path style="fill:#b28e55; stroke:none;" d="M111 133L110 137L113 136L111 133z"/>
<path style="fill:#f9f18a; stroke:none;" d="M236 135L236 136L240 138L285 138C273.64 127.022 249.675 134.605 236 135z"/>
<path style="fill:#c8bd99; stroke:none;" d="M109 135L106 139L111 138L109 135z"/>
<path style="fill:#f4fab6; stroke:none;" d="M175 190L176 190C183.453 172.73 196.566 157.918 213 148.619C220.286 144.496 235.493 143.039 240 136C219.703 136.069 198.559 151.431 185.739 166.09C179.967 172.689 174.34 180.878 175 190z"/>
<path style="fill:#fcde1b; stroke:none;" d="M211 152L231 146L218 161C225.052 157.609 230.511 151.918 238 148.922C264.743 138.224 281.003 151.341 304 162L284 144L281 145L279 141C302.701 141.262 317.483 154.824 337 165C332.081 155.29 312.001 141 301 140L302 143C292.513 142.803 284.066 137.933 274.83 136.259C259.569 133.493 244.131 138.079 230 143.117C222.424 145.817 216.133 144.384 211 152z"/>
<path style="fill:#f7e44e; stroke:none;" d="M225 143L225 144L251 138C242.606 134.478 232.944 140.582 225 143z"/>
<path style="fill:#af8838; stroke:none;" d="M413 139C411.452 147.289 418.112 155.056 425 159C424.559 150.838 418.984 144.18 413 139z"/>
<path style="fill:#c4d5dd; stroke:none;" d="M85 213L82 212C82.4645 213.925 85.7292 222.984 88.4005 217.663C90.3311 213.817 88.2167 208.05 88.0394 204C87.6762 195.706 88.866 188.273 93 181L115.981 232L116 263L109 252L104 305L105 305L109 298L108 301L114 302L115 297L118 300L123 297C124.171 302.465 135.329 301.117 140 302L154 292L153 288C149.387 289.256 148.966 292.751 145.775 294.57C135.643 300.346 129.134 295.09 120 292L119 297L118 297C112.532 285.215 117.145 276.489 119.513 264.17C121.278 254.989 121.422 245.338 121.993 236.004C122.571 226.555 124.546 221.335 118 213L118 212C122.772 207.817 116.29 203.33 112 203L111 196C105.619 192.626 107.14 188.33 105 183L118 185L113 165L117 167L118 159L126 165L145 163L152 159C151.629 152.247 148.118 150.641 142 149C138.718 158.802 125.783 159.427 125 148C116.24 149.426 118.873 158.801 114 164C114.001 152.076 119.888 149.406 125 140C105.211 140.409 89.3397 166.082 86.3256 184C84.7179 193.558 86.7843 203.389 85 213z"/>
<path style="fill:#c9b298; stroke:none;" d="M169 172L190 153.285L206 140C192.313 141.821 174.363 159.892 169 172z"/>
<path style="fill:#fcd104; stroke:none;" d="M279 141L281 145L284 144C286.791 151.969 297.011 153.163 302.139 160C308.79 168.868 302.228 174.626 304.111 183.972C304.981 188.289 310.419 187.033 311 191L332 205L333 205L336 191L342 191L345 196C347.229 189.213 339.186 181.66 336.265 176.004C334.053 171.718 336.35 167.555 333.516 163.427C323.385 148.671 296.007 141.058 279 141z"/>
<path style="fill:#f9fffc; stroke:none;" d="M85 213C87.2651 203.486 84.4639 193.49 86.5185 184C90.0841 167.531 101.739 156.033 111 143C89.731 139.467 78.9941 177.608 79 193C79.0026 199.753 78.6 209.112 85 213z"/>
<path style="fill:#6f560f; stroke:none;" d="M487.333 143.667L487.667 144.333L487.333 143.667z"/>
<path style="fill:#fff284; stroke:none;" d="M221 171C221.671 186.399 233.256 191.221 238 204L239 201L242 201C244.187 211.022 271.556 204.589 280 207C288.917 192.54 301.616 174.33 293.528 156.264C291.65 152.069 284.998 149.786 281 148.245C268.365 143.375 252.762 143.55 240 147.833C233.304 150.081 224.314 153.736 220.491 160.065C218.267 163.746 215.699 169.509 221 171z"/>
<path style="fill:#f5bf03; stroke:none;" d="M172 201L173 201L177 194L178 201C177.232 203.376 176.065 206.51 179 207L177 209L177 214L187 232C183.357 209.925 196.329 189.003 220 189L215 187L213 184L215 174C208.252 164.722 227.289 153.093 231 146C205.362 148.553 174.393 173.763 172 201z"/>
<path style="fill:#fbea49; stroke:none;" d="M208 151L208 152L214 148L208 151z"/>
<path style="fill:#f6df74; stroke:none;" d="M74 149L74 152L75 152L76 149L74 149z"/>
<path style="fill:#fff996; stroke:none;" d="M242 155L244 156L245 156L245 154C253.68 157.548 250.484 159.814 248 167L251 168L249 170L249 171C250.662 173.413 250.444 174.392 248 176L253.434 190.386L270 191L273 188L272 191L276 190L275 179L280 180L278 163L282 162C281.384 158.697 281.425 154.372 278.682 152.029C272.074 146.382 245.413 146.073 242 155z"/>
<path style="fill:#ecbf31; stroke:none;" d="M199 151C184.894 162.185 164.07 175.413 163 196L167 198C173.949 186.106 179.441 173.59 188.884 163.439C191.979 160.112 200.066 155.988 199 151z"/>
<path style="fill:#f5dc42; stroke:none;" d="M196 162L208 152L196 162z"/>
<path style="fill:#e0d4b6; stroke:none;" d="M427 152C429.903 174.993 447.801 193.937 448 218L451 218C451.774 227.81 455.237 237.571 455.945 247.015C457.576 268.767 450.889 296.482 443.609 317C437.899 333.092 426.736 347.9 422 364L431 356L430 353L434 352C433.364 348.233 439.906 337.067 442 341L443 341C449.528 316.814 458.41 294.327 460.83 269C463.142 244.807 457.728 221.25 452 198L451 198L451 202C446.499 197.705 445.947 190.724 443.925 185C440.043 174.006 435.067 160.617 427 152z"/>
<path style="fill:#ceac8d; stroke:none;" d="M334 154C336.67 163.516 347.226 171.173 352.103 180C363.055 199.824 368 222.647 368 245L369 245C369 217.701 365.398 195.009 350.11 172.001C345.864 165.61 341.12 157.512 334 154z"/>
<path style="fill:#fee869; stroke:none;" d="M294 155C294.158 169.303 295.832 180.26 288 193C297.958 193.596 299.911 171.404 301 164L294 155z"/>
<path style="fill:#ffe03e; stroke:none;" d="M296 156L301 164L294 191L312 190L312 189C299.2 183.772 308.297 176.212 305.681 166.039C304.547 161.629 299.518 158.449 296 156z"/>
<path style="fill:#f7f4bf; stroke:none;" d="M450 156L461.996 187L474 243L475 243C475 220.646 470.103 197.59 461.235 177C458.251 170.071 456.732 160.25 450 156z"/>
<path style="fill:#b5bdbf; stroke:none;" d="M145 163L126 165L118 159L118 166L131 169.737L151 164C150.057 184.284 126.958 186.996 116 173C113.228 180.815 119.567 184.991 126 187.049C134.92 189.904 143.411 186.389 149.442 179.544C152.559 176.006 154.093 165.788 152.681 161.243C151.144 156.294 146.361 160.479 145 163z"/>
<path style="fill:#d5e2e6; stroke:none;" d="M385 163L375 166C372.845 173.557 367.032 187.771 369 195L367 191L366 191L371.917 219L371.389 257L370.083 271.056L372.361 276.972L370 279L370 283L373 282L373 289L382 287C382 278.914 396 283.653 396 273L406 267L406 266L408 252L411 252L410 248L417 225L417 224C409.803 214.489 394.225 219.461 389 209C378.442 206.003 373.027 188.814 373 179L382 180L381 175C387.362 177.206 396.07 180.048 402.442 176.181C407.784 172.94 405.979 165.974 414 167C413.363 165.29 412.925 164.045 411.566 162.74C401.493 153.073 404.213 169.389 399.721 173.427C391.75 180.595 385.585 170.097 385 163z"/>
<path style="fill:#f4cf7f; stroke:none;" d="M83 160L82 164L83 164L83 160z"/>
<path style="fill:#d7e3e8; stroke:none;" d="M170 160C167.626 165.26 157.211 183.26 151 177C145.712 183.16 138.62 189.07 130 187.787C122.927 186.734 111.395 179.824 105 183C106.493 188.447 105.075 193.517 111 196L112 203C116.567 203.713 121.189 207.354 118 212L118 213C127.392 229.977 120.401 253.295 117.842 272C116.453 282.148 111.68 287.285 118 297L119 297L120 292C128.393 296.584 137.175 300.456 146.582 294.57C149.317 292.859 150.103 289.671 153 288L155 315L157 317L158 317L159 314L164 314L161 304C163.362 293.96 156.331 280.823 153.559 271C148.996 254.831 147.496 238.774 148.015 222C148.564 204.276 166.057 188.996 165 171C169.31 168.485 171.227 164.869 172 160L170 160z"/>
<path style="fill:#e8c08c; stroke:none;" d="M161 194L162 194C167.857 184.103 174.349 167.456 185 162C174.148 158.608 162.924 185.88 161 194z"/>
<path style="fill:#fbda37; stroke:none;" d="M215 174L213 184L215 187L228 191L221 171C217.049 168.492 218.851 164.927 220 161C215.663 163.124 210.168 169.756 215 174z"/>
<path style="fill:#ebba43; stroke:none;" d="M334 163L336 177L337 177L337 174C344.477 181.499 352.58 192.457 355 203L356 203L358 201C356.299 188.212 345.448 169.102 334 163z"/>
<path style="fill:#ad9374; stroke:none;" d="M115 167C122.206 185.351 136.021 176.395 149 174L151 164L132 169.603L115 167z"/>
<path style="fill:#f6e883; stroke:none;" d="M66 165L63 173L64 173L66 165z"/>
<path style="fill:#786c6f; stroke:none;" d="M113 165L117 174L118 173L113 165z"/>
<path style="fill:#bfcfd4; stroke:none;" d="M419 165L419 185C414.428 180.121 418.518 171.738 413.567 167.619C407.525 162.593 405.071 174.763 400.812 176.576C394.211 179.384 387.476 176.693 381 175L382 180L379 181L396 186C398.681 183.89 410.652 178.006 413.4 180.623C416.009 183.106 415 188.751 415 192L419 189C418.999 197.818 413.956 210.39 403.946 212.671C399.259 213.739 393.768 211.208 389 211L417 224L417 225L410 248L411 252L408 252L406 266L406 267L396 273C395.252 282.707 383.672 278.849 382 287L373 289L373 282L370 283L370 279L372.065 259L371.866 218L365 198L364 198C368.406 227.969 369.486 255.028 363.147 285C361.972 290.552 357.619 294.648 356 300L361 301L361 302L359 304L364 305C382.476 297.086 398.365 287.65 412.285 272.975C416.878 268.132 424.538 264.482 423 257L431 252L431 276L432 276C432.901 266.948 436.607 258.6 437.811 249.985C440.786 228.707 437.394 204.932 429.907 185C426.926 177.063 425.487 170.908 419 165z"/>
<path style="fill:#bf9a84; stroke:none;" d="M157 210C157.319 195.033 166.537 181.352 174 169C163.586 173.933 161.075 186.853 157.004 196.576C155.162 200.974 152.524 206.734 157 210z"/>
<path style="fill:#daa51d; stroke:none;" d="M75 170L74 176L67 177L69 184L63 185L64 189L62 192C51.8814 191.239 52.311 206.654 50.5594 214C44.7287 238.455 46.4877 262.182 47 287L48 287L48 282L49 282L58 322L64 321L63 325L70 321C68.5846 309.642 63.2959 298.28 61.2593 286.91C58.1241 269.408 58.381 250.615 60.1705 233C61.4902 220.011 65.173 205.343 69.3835 193C71.8987 185.626 76.2085 177.727 77 170L75 170z"/>
<path style="fill:#efd643; stroke:none;" d="M187 170L183 177L187 170z"/>
<path style="fill:#e4b027; stroke:none;" d="M447 170C453.869 202.015 463 234.876 463 268L466 268L467 255C470.884 253.634 470.907 250.816 471 247L472 247L473 275L474 275C474 247.915 472.672 221.174 464.821 195C462.091 185.898 460.75 170.854 449 173L447 170z"/>
<path style="fill:#582c18; stroke:none;" d="M117 173C119.648 182.343 137.048 186.082 143 178C131.03 179.612 127.874 177.573 117 173z"/>
<path style="fill:#7f4e2d; stroke:none;" d="M141 177C144.788 179.015 146.709 176.58 148 173L141 177z"/>
<path style="fill:#705516; stroke:none;" d="M499.333 173.667L499.667 174.333L499.333 173.667z"/>
<path style="fill:#fbe89c; stroke:none;" d="M337 174L339 182L340 182L337 174z"/>
<path style="fill:#ecc081; stroke:none;" d="M346 175L363 216L364 216C363.888 202.444 356.842 190.288 352 178L346 175z"/>
<path style="fill:#fef7d9; stroke:none;" d="M340 178L351.544 211L352 255C359.372 252.116 357.935 242.61 358.715 236C360.554 220.41 357.945 206.47 350.709 192.715C347.835 187.252 345.791 180.855 340 178z"/>
<path style="fill:#824d2e; stroke:none;" d="M128 179L128 180L136 180L128 179z"/>
<path style="fill:#a8bac2; stroke:none;" d="M373 179L382 189L386 189L386 192C391.938 192.75 397.912 193.777 403.715 191.594C407.205 190.281 411.136 186.348 414 190L415 190C415 187.208 415.922 181.993 413.4 180.032C410.444 177.734 398.095 183.51 396 186L373 179z"/>
<path style="fill:#6e5516; stroke:none;" d="M501 179L501 182L502 182L501 179z"/>
<path style="fill:#857779; stroke:none;" d="M123 180L126 182L123 180z"/>
<path style="fill:#b6c7cc; stroke:none;" d="M92 181L88 209L89 209L91 202C98.6404 208.577 103.143 224.666 113 228C113 235.619 117.525 247.147 112 253L116 263C115.691 254.36 117.887 245.12 117 236C115.795 223.605 108.982 214.266 104 204C100.681 197.161 98.4552 185.734 92 181z"/>
<path style="fill:#c69d79; stroke:none;" d="M373 181L375 194L376 194L390 193L390 192L386 192L386 189L382 189C380.658 184.633 377.328 182.191 373 181z"/>
<path style="fill:#dabd7d; stroke:none;" d="M28 182L28 183L33 183L28 182z"/>
<path style="fill:#7b5c4c; stroke:none;" d="M128 182L128 183L136 183L128 182z"/>
<path style="fill:#e5e7d4; stroke:none;" d="M24 190C26.3382 190.528 28.6358 191.824 30.9823 192.168C41.2363 193.673 30.9575 174.733 24.6034 186.103C23.9736 187.23 24.0927 188.785 24 190z"/>
<path style="fill:#f0d960; stroke:none;" d="M179 183L178 186L179 183z"/>
<path style="fill:#c8c5b2; stroke:none;" d="M77 184C69.1936 201.145 66 218.146 66 237L67 237C68.2945 226.757 68.6429 214.811 71.652 205C73.7023 198.315 80.0111 191.385 77 184z"/>
<path style="fill:#745b02; stroke:none;" d="M503 185L503 190L504 190L503 185z"/>
<path style="fill:#d0b071; stroke:none;" d="M23 186L23 190L24 190L23 186z"/>
<path style="fill:#d2c48d; stroke:none;" d="M36 186L36 191L37 191L36 186z"/>
<path style="fill:#f7f7d8; stroke:none;" d="M173 186C165.372 200.5 161.994 215.638 162 232C162.002 237.863 161.343 246.844 168 249L166.259 219L175 186L173 186z"/>
<path style="fill:#968672; stroke:none;" d="M387 193L387 194C396.438 197.999 412.466 200.769 414 187L387 193z"/>
<path style="fill:#866009; stroke:none;" d="M208 190L208 191L221 190L208 190z"/>
<path style="fill:#674401; stroke:none;" d="M298 189L298 190L308 190L298 189z"/>
<path style="fill:#b0b6b6; stroke:none;" d="M417 189C413.719 213.067 394.731 208.374 379 199C388.673 223.015 419 212.405 419 189L417 189z"/>
<path style="fill:#c9bb9e; stroke:none;" d="M24 190C26.4878 194.056 29.5129 193.984 34 194L24 190z"/>
<path style="fill:#ab9888; stroke:none;" d="M77 190L76 196L77 196L77 190z"/>
<path style="fill:#3c1418; stroke:none;" d="M196 199C202.122 196.6 207.136 192.179 214 191.372C223.141 190.297 235.224 199.546 234 209L236 206L237 206L240 210C235.412 190.695 208.747 181.34 196 199z"/>
<path style="fill:#90691c; stroke:none;" d="M222.667 190.333L223.333 190.667L222.667 190.333z"/>
<path style="fill:#483200; stroke:none;" d="M284 201L288 201C292.268 195.654 297.132 192.604 304 192C296.239 187.904 287.386 193.799 284 201z"/>
<path style="fill:#111210; stroke:none;" d="M300 190L300 191L312 196L302 195L302 196C323.832 200.406 303.818 228.266 292.287 209.961C290.875 207.72 290.337 205.573 290 203C283.274 207.029 279.857 220.297 286.434 226.185C292.207 231.355 303.762 231.743 311 230.7C314.933 230.133 324.302 228.723 326.821 225.411C331.663 219.045 326.777 201.793 321.772 196.758C315.499 190.447 308.361 190 300 190z"/>
<path style="fill:#d2aa7f; stroke:none;" d="M414 190L407 197L407 198C411.563 197.656 416.974 195.157 414 190z"/>
<path style="fill:#997d05; stroke:none;" d="M204.667 191.333L205.333 191.667L204.667 191.333z"/>
<path style="fill:#4a483f; stroke:none;" d="M212 191L212 192L219 192L212 191z"/>
<path style="fill:#d9a727; stroke:none;" d="M226 191L229 193L226 191z"/>
<path style="fill:#e2af03; stroke:none;" d="M335 191L333 205L332 205L329 202C337.411 222.501 332.372 251.938 304 249.946C295.389 249.341 291.051 240.503 283.871 239.117C280.431 238.453 275.251 240.89 272 242C282.212 250.756 271.156 257.858 261 258.829C251.06 259.778 245.235 253.11 237 249L239 244C227.03 243.063 217.307 253.566 205 249.182C195.28 245.72 186.724 234.569 181.848 225.829C179.644 221.879 180.884 216.673 177 214L179 207C175.577 207 177.293 203.443 178 201L177 194C164.607 202.181 168 229.288 168 242L169 242L170 222L175 230L179 229L186 239L185 241L194 244C193.884 246.171 195.129 252.555 198 250L206 259L211 257L212 257C212.683 260.123 214.087 259.5 217 259L219 261C219.469 271.983 231.775 268.102 238 273L249 271C250.156 277.908 259.488 275.535 265 275.57C270.014 275.602 274.994 277.449 279.996 276.528C289.214 274.831 299.486 268.018 308 264L325 248L329 250L331 244L334 245L336 239L339 237L347 238L350 231L351 231L351 248L352 248C352 228.152 355.007 207.53 342 191L335 191z"/>
<path style="fill:#605643; stroke:none;" d="M209.667 192.333L210.333 192.667L209.667 192.333z"/>
<path style="fill:#a79f98; stroke:none;" d="M209 193L209 194L221 193L209 193z"/>
<path style="fill:#a9a292; stroke:none;" d="M296 195L308 194C304.4 191.273 298.869 191.231 296 195z"/>
<path style="fill:#b68656; stroke:none;" d="M376 192C376.968 196.787 379.621 199.898 384 202C384 201.279 383.441 199.736 385 200.333C396.288 204.656 399.937 203.367 411 199L411 198L376 192z"/>
<path style="fill:#e3a63b; stroke:none;" d="M162 193L158 215L155 214L157 248L158 248C158 236.501 160.279 223.659 162.222 212C163.556 203.998 167.479 199.48 162 193z"/>
<path style="fill:#776746; stroke:none;" d="M205 196L209 193L205 196z"/>
<path style="fill:#81786c; stroke:none;" d="M213 193L213 194L217 194L213 193z"/>
<path style="fill:#c5cac7; stroke:none;" d="M220 193L233 203C230.936 196.98 226.259 193.68 220 193z"/>
<path style="fill:#ebaf42; stroke:none;" d="M229 193L232 195L229 193z"/>
<path style="fill:#847c5f; stroke:none;" d="M308 193L312 196L308 193z"/>
<path style="fill:#572a19; stroke:none;" d="M416 193C403.96 204.759 397.646 202.792 383 200C389.33 209.435 419.164 206.708 416 193z"/>
<path style="fill:#795f10; stroke:none;" d="M505 193L505 199L506 199L505 193z"/>
<path style="fill:#e0b164; stroke:none;" d="M160 194L156 215L158 215L162 194L160 194z"/>
<path style="fill:#16120c; stroke:none;" d="M202 194C194.057 203.571 184.807 216.365 194 229C200.296 225.091 201.279 230.919 207.054 231.853C214.372 233.036 222.347 232.093 229 229C229.56 233.994 226.438 239.474 223 243L223 244C238.737 242.247 240 222.154 240 210L237 210L237 206L236 206L235 209L231 204C229.794 206.809 228.687 209.602 226.657 211.945C213.895 226.671 196.939 197.548 220 196L220 195L205 196L202 194z"/>
<path style="fill:#353145; stroke:none;" d="M209 194L209 195C218.034 195.001 223.596 197.393 229 205L231 205L232 204C227.552 194.549 218.228 194 209 194z"/>
<path style="fill:#8c8a72; stroke:none;" d="M288 202L289 202L297 195C292.097 194.716 289.556 197.52 288 202z"/>
<path style="fill:#36373e; stroke:none;" d="M290 204L291 204C295.526 198.2 300.624 195.338 308 195C301.592 192.312 289.211 195.788 290 204z"/>
<path style="fill:#92420f; stroke:none;" d="M77 195C71.9013 204.576 70.0893 217.211 70 228L71 228C72.3019 218.332 80.9053 204.579 77 195z"/>
<path style="fill:#e9c34f; stroke:none;" d="M232 195L237 201L232 195z"/>
<path style="fill:#b1825f; stroke:none;" d="M78 196L78 200L79 200L78 196z"/>
<path style="fill:#cbccc9; stroke:none;" d="M214 196L214 197L221 197L214 196z"/>
<path style="fill:#d5d5cf; stroke:none;" d="M299 196L299 197L306 197L299 196z"/>
<path style="fill:#fcd741; stroke:none;" d="M347 196L347 201L348 201L347 196z"/>
<path style="fill:#f5c669; stroke:none;" d="M167 197C160.539 207.536 161 222.035 161 234L162 234L167 197z"/>
<path style="fill:#ffffff; stroke:none;" d="M213.019 198.028C200.979 204.315 212.563 220.596 223.956 214.682C235.847 208.51 223.574 192.516 213.019 198.028M297.015 197.742C284.07 202.848 295.317 220.107 306.906 215.258C318.997 210.198 309.306 192.895 297.015 197.742z"/>
<path style="fill:#7a8191; stroke:none;" d="M211 198L212 199L211 198z"/>
<path style="fill:#cca17b; stroke:none;" d="M74 199L71 212L72 212L74 199z"/>
<path style="fill:#bcc3c6; stroke:none;" d="M155 199C145.513 222.969 147.567 244.206 152.819 269C155.141 279.966 162.961 292.897 161 304L164 314L158 317L157 317L155 315L156 294L155 294C154.98 320.281 120.195 332.564 116 301C130.118 303.365 147.09 307.808 154 292L140 302C134.52 300.695 126.34 302.211 123 297L118 300L115 297L114 302L108 301L109 298C102.069 301.629 103.232 311.362 102 318L103 318L104 314L105 314L104 323C114.199 319.359 129.215 336.355 139.285 339.54C155.656 344.719 171.018 340.901 187.039 348.802C201.4 355.885 208.898 371.693 222.911 379.66C244.373 391.863 267.874 387.781 291 384.263C296.836 383.375 301.841 386.747 307.826 384.11C314.664 381.097 328.694 366.53 332 360L335 361L341 347L332 354L328 352C335.546 343.465 341.179 333.905 350.089 326.213C364.763 313.544 381.983 305.553 397.806 294.74C406.879 288.539 414.53 274.596 426 274L427 282L428 282L431 252L423 257C423.602 264.56 416.095 267.993 411.424 272.975C397.439 287.892 381.539 295.42 364 305L359 304L361 302L361 301L356 300C366.883 275.572 370.437 247.199 367 220L366 220C366 231.12 367.171 242.987 365.572 254C364.131 263.922 359.054 271.156 355.171 280.001C350.573 290.471 346.615 302.726 339.621 311.829C331.695 322.146 321.874 327.236 311.019 333.464C305.43 336.67 301.184 341.32 295 343.674C260.587 356.778 217 346.508 190.001 321.616C168.202 301.519 153.345 269.778 152.039 240C151.72 232.708 151.035 224.184 152.375 217C153.396 211.525 156.25 204.472 155 199z"/>
<path style="fill:#7f8ea1; stroke:none;" d="M210 199L211 200L210 199z"/>
<path style="fill:#edb924; stroke:none;" d="M4 200L5 205L6 205L4 200z"/>
<path style="fill:#c57503; stroke:none;" d="M78 200L71 228L70 228L70 225L69 225L68 248L69 248L74 224L78 224C78.8119 230.424 79.1617 246.595 86 249C86.3748 254.398 89.268 261.015 95 262L95 267L99 271L105 270L107 251L106 251L104 262L102 262L92.5887 251.431L86.7238 237.715L78 200z"/>
<path style="fill:#452300; stroke:none;" d="M194 200L191 206L194 200z"/>
<path style="fill:#94a2b2; stroke:none;" d="M209 200L210 201L209 200z"/>
<path style="fill:#330e04; stroke:none;" d="M332 217L331 217L330 225L311 230.535L294 230L294 231C301.48 234.6 311.294 233.443 319 231C318.435 241.719 305.516 242.33 298.289 237.765C295.679 236.117 289.828 233.196 293 230L293 229C278.303 223.15 285.67 211.479 287 200C278.154 203.242 278.86 218.243 280.518 226C285.661 250.072 316.907 256.11 329.095 234C332.098 228.552 332 223.032 332 217z"/>
<path style="fill:#5c4744; stroke:none;" d="M325 200L325 205L326 205L325 200z"/>
<path style="fill:#d39553; stroke:none;" d="M356 200L359.83 221L359 246L360 246L360 242L361 242L357 268L358 268C363.415 249.283 370.272 230.312 361.708 211.961C359.6 207.443 360.503 202.926 356 200z"/>
<path style="fill:#898677; stroke:none;" d="M394 207L394 208C402.257 207.995 409.448 207.758 414 200L394 207z"/>
<path style="fill:#6e7583; stroke:none;" d="M208 201L209 202L208 201z"/>
<path style="fill:#fde74c; stroke:none;" d="M239 201C242.163 211.305 266.189 209.098 275 207L275 206C266.82 206 245.3 209.974 242 201L239 201z"/>
<path style="fill:#6e5629; stroke:none;" d="M287 201L286 205L289 202L287 201z"/>
<path style="fill:#685309; stroke:none;" d="M507 201L507 208L508 208L507 201z"/>
<path style="fill:#a4acaa; stroke:none;" d="M91 202L89 217L90 217C98.2485 212.161 117.886 240.93 105 245L106 251C108.605 250.907 110.11 253.709 113 252.667C117.776 250.944 113 232.431 113 228L91 202z"/>
<path style="fill:#b0977a; stroke:none;" d="M233 202L234 208L235 208L233 202z"/>
<path style="fill:#8b6b3f; stroke:none;" d="M326 202L326 207L327 207L328 205L332 210C331.255 205.901 330.107 203.285 326 202z"/>
<path style="fill:#f5df76; stroke:none;" d="M169 203L167 219L168 219L171 203L169 203z"/>
<path style="fill:#9ca6ae; stroke:none;" d="M207 203L207 208L208 208L207 203z"/>
<path style="fill:#ffdc0c; stroke:none;" d="M239 203C239.942 218.869 240.125 228.77 231 243L239 244L237 249L241 251C241.465 248.128 242.52 245.069 246.019 244.827C249.762 244.568 253.198 248.293 257 248.811C263.686 249.722 277.92 243.218 282.381 238.297C285.132 235.262 281.889 231.064 280.835 228C278.491 221.185 278.704 213.979 280 207L275 205C268.169 211.401 245.337 209.272 239 203z"/>
<path style="fill:#868e90; stroke:none;" d="M312 203L312 209L313 209L312 203z"/>
<path style="fill:#ffd547; stroke:none;" d="M349 203L349 207L350 207L349 203z"/>
<path style="fill:#6c4f3b; stroke:none;" d="M392 206L392 207L409 204L392 206z"/>
<path style="fill:#93740d; stroke:none;" d="M281.333 204.667L281.667 205.333L281.333 204.667z"/>
<path style="fill:#4b5b6a; stroke:none;" d="M290 204L290 208L291 208L290 204z"/>
<path style="fill:#74430b; stroke:none;" d="M190 205L187 225L188 225C188 219.793 190.368 207.342 193 208L190 205z"/>
<path style="fill:#7a7b7b; stroke:none;" d="M229 205L229 209L230 209L229 205z"/>
<path style="fill:#b69b76; stroke:none;" d="M327 205L329 225L330 225C331.285 218.077 332.362 210.373 327 205z"/>
<path style="fill:#a0751d; stroke:none;" d="M239.333 206.667L239.667 207.333L239.333 206.667z"/>
<path style="fill:#caa514; stroke:none;" d="M280.333 206.667L280.667 207.333L280.333 206.667z"/>
<path style="fill:#c39c80; stroke:none;" d="M80 207L80 210L81 210L80 207z"/>
<path style="fill:#b78208; stroke:none;" d="M188.333 207.667L188.667 208.333L188.333 207.667z"/>
<path style="fill:#966922; stroke:none;" d="M191 207L190 214L191 214L191 207z"/>
<path style="fill:#dcc177; stroke:none;" d="M454 207L455 214L456 214L454 207z"/>
<path style="fill:#c49836; stroke:none;" d="M240 208L240 211L241 211L240 208z"/>
<path style="fill:#ddc87f; stroke:none;" d="M471 208L471 213L472 213L471 208z"/>
<path style="fill:#e6dcc6; stroke:none;" d="M67 209L65 210C45.2842 286.205 77.535 361.207 131 415L132 415L138 401L134 406C121.642 397.271 111.375 382.544 103.138 370C82.8357 339.081 69.7105 305.181 66.1698 268C64.9247 254.925 65.036 240.093 66.0934 227C66.6125 220.572 69.8586 215.381 67 209z"/>
<path style="fill:#ac9063; stroke:none;" d="M154 209L156 247L157 247L156 209L154 209z"/>
<path style="fill:#894f0c; stroke:none;" d="M279 209L279 223L280 223L279 209z"/>
<path style="fill:#8f979d; stroke:none;" d="M208 210L209 211L208 210z"/>
<path style="fill:#723c19; stroke:none;" d="M331 210L332 224L333 224L333 210L331 210z"/>
<path style="fill:#e8ce73; stroke:none;" d="M50 211L50 216L51 216L50 211z"/>
<path style="fill:#703711; stroke:none;" d="M240 211L240 222L241 222L240 211z"/>
<path style="fill:#956236; stroke:none;" d="M71 212L70 221L71 221L71 212z"/>
<path style="fill:#75747b; stroke:none;" d="M293 212L294 213L293 212z"/>
<path style="fill:#9ba8b3; stroke:none;" d="M310 212L311 213L310 212z"/>
<path style="fill:#c59b32; stroke:none;" d="M333 212L333 222L334 222L333 212z"/>
<path style="fill:#a59195; stroke:none;" d="M153 213L152 245L153 245L153 213z"/>
<path style="fill:#5d626b; stroke:none;" d="M294 213L295 214L294 213z"/>
<path style="fill:#ccb28f; stroke:none;" d="M90 215L85 220L91 224L90 215z"/>
<path style="fill:#758590; stroke:none;" d="M222.667 215.333L223.333 215.667L222.667 215.333z"/>
<path style="fill:#5a4632; stroke:none;" d="M328 215L328 224L329 224L328 215z"/>
<path style="fill:#928b7b; stroke:none;" d="M91 216L91 224L87 224L101.566 232.326L104 247C116.911 239.017 102.871 217.655 91 216z"/>
<path style="fill:#f6e5a8; stroke:none;" d="M166 216L166 236L167 236L166 216z"/>
<path style="fill:#5a6975; stroke:none;" d="M216 216L216 217L221 217L216 216z"/>
<path style="fill:#778a99; stroke:none;" d="M299 216L299 217L305 217L299 216z"/>
<path style="fill:#8a2e05; stroke:none;" d="M83 217C83.2329 226.906 90.7462 246.152 102 247L102 251L105 251C104.057 241.851 96.1583 236.812 90.8194 230C87.6326 225.934 86.0567 221.039 83 217z"/>
<path style="fill:#4c1404; stroke:none;" d="M188 217C188 238.531 202.987 254.76 225 245L223 243L227 237C219.795 239.817 196.788 243.73 198 230L201 231L203 228C199.179 226.468 197.194 226.278 194 229L190 217L188 217z"/>
<path style="fill:#f2c96d; stroke:none;" d="M62 218L62 222L63 222L62 218z"/>
<path style="fill:#bb8d5f; stroke:none;" d="M69 218L68 231L69 231L69 218z"/>
<path style="fill:#edd59a; stroke:none;" d="M359 218L358 246L359 246L359 218z"/>
<path style="fill:#c7ac89; stroke:none;" d="M449 218L449 243L450 243L450 226L452 227L451 218L449 218z"/>
<path style="fill:#ecca54; stroke:none;" d="M167 219L167 240L168 240L167 219z"/>
<path style="fill:#f3cc54; stroke:none;" d="M470 219L471 229L472 229L470 219z"/>
<path style="fill:#8a7170; stroke:none;" d="M153 220L153.213 249L157 264L158 264L154.285 233L153 220z"/>
<path style="fill:#d89702; stroke:none;" d="M170 222L169 247L170 247L170 242L171 242C171.648 250.383 186.24 261.346 192.733 266.449C215.805 284.582 239.077 299.962 270 294.196C276.287 293.024 286.632 293.218 291 288L295 290L314.961 279.233L345 260L345 267L346 267L351 231L350 231L347 238L346 235L339 237L336 239L334 245L331 244L329 250L325 248L308 264C298.572 266.753 289.542 274.194 279.996 276.301C275.01 277.401 269.997 275.397 265 275.336C259.509 275.268 250.989 277.405 249 271L238 273L226 270L217 259L212 257L211 257L206 259L198 250C195.224 250.96 194.061 246.409 194 244L185 241L186 239L179 229L175 230L170 222z"/>
<path style="fill:#a14804; stroke:none;" d="M83 223C83.3464 230.92 87.1776 245.02 91.9884 251.431C95.3057 255.852 99.3831 256.315 102 262L104 262L106 248L105 248L102 251L102 247C90.6775 245.27 89.0488 230.568 83 223z"/>
<path style="fill:#f9ca3c; stroke:none;" d="M352 223L352 236L353 236L352 223z"/>
<path style="fill:#554309; stroke:none;" d="M510.667 223.333L511.333 223.667L510.667 223.333z"/>
<path style="fill:#dfa206; stroke:none;" d="M74 224L69 248L68 248L68 233L67 233C67 276.35 72.5327 313.437 91 353L92 353L94 339L92.0131 324.129L96.7863 314.995L100.206 290L106 268L105 268L99 271L95 267L95 262C89.8245 260.382 86.7078 254.179 86 249C79.2778 245.073 79.3165 231.091 78 224L74 224z"/>
<path style="fill:#794800; stroke:none;" d="M239 224L239 227L240 227L239 224z"/>
<path style="fill:#f2d571; stroke:none;" d="M332 224C330.001 237.335 319.245 239.464 313 249C323.357 247.154 336.965 235.863 332 224z"/>
<path style="fill:#efc860; stroke:none;" d="M186 225C186.556 235.834 194.214 246.544 205 249.501C216.16 252.56 234.136 246.843 236 234L235 234C232.906 237.621 230.532 240.688 226.996 243.035C206.873 256.391 196.256 240.999 186 225z"/>
<path style="fill:#aa6c1a; stroke:none;" d="M187 225L187 228L188 228L187 225z"/>
<path style="fill:#b08321; stroke:none;" d="M280.333 226.667L280.667 227.333L280.333 226.667z"/>
<path style="fill:#ffeb9d; stroke:none;" d="M353 226L353 236L354 236L353 226z"/>
<path style="fill:#9d7042; stroke:none;" d="M450 226L450 238L451 238L451 235L452 235L452 240L453 240L450 226z"/>
<path style="fill:#967958; stroke:none;" d="M89 228L102 242C105.917 231.167 98.3921 227.782 89 228z"/>
<path style="fill:#b98734; stroke:none;" d="M188.333 229.667L188.667 230.333L188.333 229.667z"/>
<path style="fill:#522d08; stroke:none;" d="M201 229L198 230C194.883 243.43 232.841 245.08 229 229C221.64 231.485 209.243 235.375 203 229L201 229z"/>
<path style="fill:#b59028; stroke:none;" d="M281.333 229.667L281.667 230.333L281.333 229.667z"/>
<path style="fill:#efdb8b; stroke:none;" d="M44 230L45 247L46 247L47 235L44 230z"/>
<path style="fill:#58320a; stroke:none;" d="M290 230L299 238L298 235L315 235L318 238L319 231C307.826 233.554 300.833 231.41 290 230z"/>
<path style="fill:#f4e797; stroke:none;" d="M475 230L469 307L470 307C476.02 289.223 476 270.55 476 252C476 245.314 477.599 236.194 475 230z"/>
<path style="fill:#d08134; stroke:none;" d="M159 234C156.422 245.723 155.3 270.088 168 277L165 264L169 264L173 265L171 251L170 251L170 258C161.523 253.004 162 242.582 162 234L159 234z"/>
<path style="fill:#f5c532; stroke:none;" d="M284 235C286.248 249.442 303.756 250 315 250L315 249C300.78 249 293.976 244.735 284 235z"/>
<path style="fill:#734514; stroke:none;" d="M298 235C300.672 242.43 313.533 243.87 315 235L298 235z"/>
<path style="fill:#984b11; stroke:none;" d="M451 235L449 290L450 290C452.212 285.749 451.807 281.643 452.424 277C454.119 264.246 457.213 246.829 451 235z"/>
<path style="fill:#f4d791; stroke:none;" d="M352 236L352 245L353 245L352 236z"/>
<path style="fill:#8c6445; stroke:none;" d="M365 236L363 261C365.305 253.727 368.082 243.345 365 236z"/>
<path style="fill:#cdae7f; stroke:none;" d="M66 237L66 271L67 271L66 237z"/>
<path style="fill:#d59a18; stroke:none;" d="M460 237C460.028 247.022 461.602 256.917 460.91 267C458.608 300.585 447.323 333.788 430.916 362.91C424.078 375.048 413.681 386.7 404.3 396.91C399.816 401.791 392.087 407.639 389.948 414C388.605 417.992 390 423.766 390 428L391 428C393.197 420.333 403.287 414.021 409.076 408.676C418.786 399.71 426.648 388.739 434.301 378C456.769 346.473 467.993 308.105 471 270L472 270L472 278L473 278L472 247L471 247L467 255L466 268L463 268C463 258.9 465.93 244.5 460 237z"/>
<path style="fill:#f0e4b8; stroke:none;" d="M44 239C43.5761 259.539 39.7442 285.767 49 305L50 305L45.0895 263L44 239z"/>
<path style="fill:#dbb73b; stroke:none;" d="M476 240C477.594 263.731 473.926 284.727 470.074 308C469.451 311.766 466.328 329.791 462 328L461 328C459.708 337.55 454.379 346.311 450.465 355C437.534 383.703 420.52 404.732 398.113 426.87C392.215 432.698 397.022 439.117 388.576 444.699C379.605 450.628 367.787 448.593 358 452.264C322.215 465.688 284.132 479.332 245 474.715C210.074 470.594 179.361 453.226 145 448.946C134.544 447.644 120.642 442.73 126 430C113.356 422.692 102.662 408.336 93.6644 397C87.5349 389.278 83.228 380.574 73 378L76 383L73 382C69.1503 383.396 66.2612 382.958 67 388L68 388L68 384L69 384L73 390L70 391L78 401L73 399L74 402C68.4278 405.921 71.5789 411.102 77 413L77 417L73 416L73 417L76 420L73 419L76 425L72 428L82 441L59 421C70.8327 437.798 91.7045 458.401 111 466L109 468L123 475L128 474L125 471L127 468L133 467L134 467L135 470L148 471C149.409 475.818 154.756 474.855 158.995 475.398C170.731 476.901 182.439 475.783 194 477.259C226.922 481.463 261.709 483.642 295 480.329C302.365 479.596 309.595 476.435 317 475.727C326.068 474.859 335.84 475.315 345 475.019C348.98 474.89 354.51 475.482 357 472L376 470L375 467L385 466L396 460L396 462C410.203 458.123 422.552 443.88 432.505 433.456C436.665 429.099 441.835 427.009 444 421L441 422L440 421L442 410L447 410L446 407C453.1 404.179 454.292 397.833 456 391C460.318 391.157 462.001 389.276 462 385L465 382L460 382L460 381L463 372L458 371L468 359L464 360L466 357L465 354L471 354L473 351L471 346L471 345L473 344C471.292 342.281 470.777 342.04 473 341L471 338C475.492 336.201 477.329 333.804 476 329L479 327L482 328L482 323L479 322L478 319L478 315C480.733 313.348 481.897 310.027 479 308L479 307C481.856 304.913 481.329 303.074 480 300L476 303L479 298L479 297L476 296L479 289L476 289L478 286L481 280L481 274L478 274C478 264.817 481.266 247.707 476 240z"/>
<path style="fill:#eac87a; stroke:none;" d="M59 241L59 268L60 268L59 241z"/>
<path style="fill:#eaab52; stroke:none;" d="M162 241C162.019 246.643 162.646 251.082 167 255L162 241z"/>
<path style="fill:#ecd9b3; stroke:none;" d="M168 242L166 249L168 254L169 254L168 242z"/>
<path style="fill:#c66203; stroke:none;" d="M170 242L171 269C177.695 268.914 180.106 273.042 185.59 275.856C195.956 281.176 209.208 285.984 217 295L220 293C223.253 299.483 232.296 302.026 239 303.332C256.733 306.786 284.323 307.72 301.871 302.57C308.642 300.583 313.722 293.392 321 291L321 293L329 291L324 294L327 297C321.964 302.578 312.386 306.728 305 308L300 319C309.324 316.091 326.313 309.268 330 299L334 299L333 303C339.074 301.219 342.601 294.94 346.14 290C355.98 276.267 360.953 258.956 361 242L360 242L351 271L345 272L345 260C333.004 261.936 324.263 273.682 313.985 279.233C307.294 282.847 299.256 282.647 295 290L291 288C283.076 294.266 267.786 294.996 258 295C229.618 295.011 205.008 279.101 185.755 259C180.291 253.295 173.749 249.028 170 242z"/>
<path style="fill:#c98b58; stroke:none;" d="M454 242L454 268L455 268L454 242z"/>
<path style="fill:#d3b092; stroke:none;" d="M455 242L455 263L456 263L455 242z"/>
<path style="fill:#2a0b00; stroke:none;" d="M265 250C269.799 249.454 272.094 247.393 274 243L265 250z"/>
<path style="fill:#6e5d52; stroke:none;" d="M274 243L273 248L274 243z"/>
<path style="fill:#b25d05; stroke:none;" d="M449 243C449 252.918 443.25 260.725 442.306 270C441.972 273.279 444.41 279.35 440 280C434.781 297.616 428.474 310.383 415.417 323.455C407.991 330.889 403.183 337.58 392 338L392 340C413.106 344.623 421.775 323.447 432.184 309.428C436.257 303.943 444.912 294.986 444 288L447 274L448 274L446 303L447 303L451 288L450 288L450 290L449 290C449.001 276.298 454.389 255.844 449 243z"/>
<path style="fill:#0a0507; stroke:none;" d="M277 245L275 245C267.137 254.784 254.067 256.316 245 247L251 248C246.351 239.577 238.127 249.383 246.059 255.347C254.151 261.432 280.775 259.345 277 245z"/>
<path style="fill:#e1cc7b; stroke:none;" d="M476 244L476 268L477 268L476 244z"/>
<path style="fill:#6e4d1e; stroke:none;" d="M241 246L241 251L242 251L241 246z"/>
<path style="fill:#c58f65; stroke:none;" d="M448 246L448 252L449 252L448 246z"/>
<path style="fill:#e2c966; stroke:none;" d="M45 247L45 267L46 267L45 247z"/>
<path style="fill:#e2b980; stroke:none;" d="M169 247L169 254L167 253L167 258L170 258L169 247z"/>
<path style="fill:#4a4b49; stroke:none;" d="M245.333 247.667L245.667 248.333L245.333 247.667z"/>
<path style="fill:#a6a6a0; stroke:none;" d="M246 247L246 249L248 249L248 247L246 247z"/>
<path style="fill:#493121; stroke:none;" d="M249 248L249 249C254.128 250.547 261.159 254.436 265 249L249 248z"/>
<path style="fill:#7a6c61; stroke:none;" d="M271 247L272 248L271 247z"/>
<path style="fill:#aea27e; stroke:none;" d="M272 247L268 250L268 251L272 247z"/>
<path style="fill:#9c6d36; stroke:none;" d="M311.667 247.333L312.333 247.667L311.667 247.333z"/>
<path style="fill:#c0813f; stroke:none;" d="M208 248L208 249L216 249L208 248z"/>
<path style="fill:#7d7672; stroke:none;" d="M247 249C251.911 253.295 260.158 255.498 266 252L247 249z"/>
<path style="fill:#ad8028; stroke:none;" d="M253.667 248.333L254.333 248.667L253.667 248.333z"/>
<path style="fill:#dba656; stroke:none;" d="M303 248L303 249L313 249L303 248z"/>
<path style="fill:#f5dfae; stroke:none;" d="M351 248L350 264C354.148 261.767 354.79 258.513 355 254L352 255L351 248z"/>
<path style="fill:#e1c43c; stroke:none;" d="M256 249L256 250L264 250L256 249z"/>
<path style="fill:#f2c97f; stroke:none;" d="M357 249L356 253L357 253L357 249z"/>
<path style="fill:#d8b85f; stroke:none;" d="M42 250L42 267L43 267L42 250z"/>
<path style="fill:#eff3eb; stroke:none;" d="M107 250L99 316L103 316C103.001 308.56 102.649 299.319 104.299 292.09C107.309 278.907 116.845 263.214 107 250z"/>
<path style="fill:#7f7975; stroke:none;" d="M265 250L265 251L268 252L265 250z"/>
<path style="fill:#b8bdaf; stroke:none;" d="M265.667 251.333L266.333 251.667L265.667 251.333z"/>
<path style="fill:#9c866e; stroke:none;" d="M365 251L362 264L363 264L365 251z"/>
<path style="fill:#d6b193; stroke:none;" d="M447 252L447 255L448 255L447 252z"/>
<path style="fill:#cea17b; stroke:none;" d="M107 254L107 268L108 268L107 254z"/>
<path style="fill:#d3d0ba; stroke:none;" d="M435 255L432 276L428 281L439 277L444 264L434 272C436.133 266.944 437.175 260.184 435 255z"/>
<path style="fill:#644a1a; stroke:none;" d="M267.667 257.333L268.333 257.667L267.667 257.333z"/>
<path style="fill:#e0b97b; stroke:none;" d="M348 257L348 267L352 266L352 264L348 257z"/>
<path style="fill:#765948; stroke:none;" d="M158 258L163 277L164 277L158 258z"/>
<path style="fill:#462b06; stroke:none;" d="M253 258L253 259L264 259L253 258z"/>
<path style="fill:#6e2f0d; stroke:none;" d="M361 259L351.988 280L346 293C353.289 286.976 364.86 268.893 361 259z"/>
<path style="fill:#d78d27; stroke:none;" d="M347 260L345 272L351 271L352 266L348 267L347 260z"/>
<path style="fill:#d6ac7f; stroke:none;" d="M445 260L445 263L446 263L445 260z"/>
<path style="fill:#cfa070; stroke:none;" d="M444.333 263.667L444.667 264.333L444.333 263.667z"/>
<path style="fill:#b6592b; stroke:none;" d="M165 264L166 278L178.093 294.16L204.749 312.236L214 318L239 328C251.747 324.967 267.465 332.914 279 325L279 324C259.346 325.553 244.959 319.234 226 315.045C221.21 313.986 211.998 308.426 208 310C201.491 296.18 165.82 284.439 173 265L169 264L165 264z"/>
<path style="fill:#908170; stroke:none;" d="M361 264L360 273L361 273L361 264z"/>
<path style="fill:#8a8187; stroke:none;" d="M158 265L160 273L161 273L158 265z"/>
<path style="fill:#d4b49d; stroke:none;" d="M106 268L106 272L107 272L106 268z"/>
<path style="fill:#ba4504; stroke:none;" d="M171 269C177.799 288.791 197.215 294.136 208 310L210 308C215.119 314.051 222.776 314.122 230 316.206C247.178 321.162 260.962 326.292 279 324L279 325L239 328L214 318C212.723 313.635 208.704 314.653 205.398 312.306C196.512 305.997 189.706 296.572 178 295C182.591 304.836 194.242 311.985 203 317.833C232.073 337.247 271.184 339.015 303 325.124C314.876 319.939 323.487 312.187 334 305L334 299L330 299C323.935 309.247 310.06 314.736 300 319L305 308C311.949 307.304 323.265 303.076 327 297L324 294L329 291L321 291C312.8 292.903 309.026 299.43 301.871 302.273C296.317 304.481 288.896 303.107 283.039 303.489C265.071 304.662 232.532 309.908 220 293L217 295C214.33 290.388 210.105 290.192 206.035 287.401C199.146 282.677 192.709 279.61 185.59 275.394C180.29 272.254 177.745 268.071 171 269z"/>
<path style="fill:#c68307; stroke:none;" d="M471 270C469.155 284.597 467.94 300.03 463.637 314C460.578 323.932 452.399 337.775 454 348L455 348L471.155 290L471 270z"/>
<path style="fill:#d7b766; stroke:none;" d="M67 271L67 279L68 279L67 271z"/>
<path style="fill:#a54602; stroke:none;" d="M441 272L426 298L428 301C421.752 304.431 417.601 315.748 412.551 321.37C404.779 330.024 394.774 333.687 384 337L384 338L392 340C395.425 337.368 399.771 338.443 403.269 335.881C421.794 322.317 435.896 302.687 440 280C443.802 279.524 442.807 275.295 443 272L441 272z"/>
<path style="fill:#a2a4a2; stroke:none;" d="M160 273C160.12 286.419 169.232 296.073 176.62 306.324C205.941 347.003 266.436 363.374 309.129 335.156C320.771 327.461 338.98 321.424 343 306C330.5 311.741 321.451 325.349 309 332.403C304.189 335.129 295.972 335.333 294 341C280.254 341.047 267.017 345.927 253.015 344.946C228.606 343.236 201.545 328.701 184.826 310.91C174.311 299.721 170.77 282.95 160 273z"/>
<path style="fill:#a8a9a7; stroke:none;" d="M328 352L332 354L341 347L335 361L332 360L310 384C322.064 377.632 331.987 363.92 341.301 354.285C346.988 348.403 354.034 343.493 359 337L340 342C353.227 323.381 380.175 307.314 399.999 296.403C407.956 292.023 412.293 286.107 422 286L423 281L424 281L424 285L425 285L427 280L426 274C414.434 274.272 406.606 287.509 397.806 294.14C392.151 298.4 384.948 300.283 379 303.998C359.023 316.476 340.995 332.506 328 352z"/>
<path style="fill:#c98105; stroke:none;" d="M447 274L444 288C443.882 295.449 435.749 303.498 431.545 309.428C419.862 325.907 412.144 343.588 389 339L389 340C400.702 349.322 398 354.887 393.859 366.961C392.155 371.929 390.273 379.928 384.699 382.049C381.566 383.241 377.251 381.283 374 381C372.694 375.659 367.656 360.12 362.698 357.562C359.205 355.76 355.705 358.756 352.729 360.243C343.328 364.941 335.035 374.209 331 384C337.589 383.502 337.297 379.659 341.312 375.594C346.272 370.573 354.251 366.845 358 361L372.684 380.892L384 388C393.649 385.976 401.208 378.573 400.66 367.961C400.433 363.554 397.915 354.489 401.434 350.897C404.191 348.082 415.139 348.231 419 348L422 341L427 343L428 335L429 335L430 337L431 333L434 340L435 340C437.75 330.45 442.932 321.677 445.42 312C446.73 306.904 445.646 302.025 446.529 297C447.73 290.159 449.788 280.644 447 274z"/>
<path style="fill:#5e1f0a; stroke:none;" d="M164 275C165.153 286.199 175.455 297.23 182.965 304.985C205.231 327.978 241.221 344.671 273 336L273 335C237.457 335 207.61 325.89 181.927 300C174.738 292.752 171.458 281.89 164 275z"/>
<path style="fill:#eff9fb; stroke:none;" d="M122 285L130 281C127.997 286.677 131.689 298.045 139.698 292.971C143.835 290.35 143.268 284.539 148 282C144.044 272.678 122.825 273.264 122 285z"/>
<path style="fill:#bfb194; stroke:none;" d="M437 276L426 281C425.364 282.63 424.408 284.321 423.938 286.005C422.911 289.677 426.267 292.37 429.816 290.798C434.095 288.903 439.373 280.15 437 276z"/>
<path style="fill:#d6b475; stroke:none;" d="M103 280L101 288L103 280z"/>
<path style="fill:#999083; stroke:none;" d="M423 281L422 286C412.683 286.032 409.469 290.353 401.985 294.764C387.878 303.079 374.372 312.563 361 322L361 323C376.699 318.615 392.771 304.904 406.985 296.79C411.193 294.388 416.82 295.797 420.683 293.012C423.934 290.667 424.316 284.37 423 281z"/>
<path style="fill:#ac4606; stroke:none;" d="M48 282C48.0248 319.434 68.8169 365.765 91.3503 395C99.1306 405.094 107.759 415.174 117 423.96C120.878 427.647 126.749 432.388 129 425C118.779 419.917 111.172 408.588 103.961 399.999C85.1831 377.635 67.6026 352.168 58.6188 324C54.4575 310.952 54.3553 293.954 48 282z"/>
<path style="fill:#ddb053; stroke:none;" d="M61 282L61 290L62 290L61 282z"/>
<path style="fill:#8b6857; stroke:none;" d="M353 283L331 312C338.063 308.335 355.033 291.807 353 283z"/>
<path style="fill:#79470f; stroke:none;" d="M0.666667 288.333L1.33333 288.667L0.666667 288.333z"/>
<path style="fill:#dbc291; stroke:none;" d="M100 288L99 297L100 297L100 288z"/>
<path style="fill:#8f817d; stroke:none;" d="M169 288L177 301L169 288z"/>
<path style="fill:#8f6d13; stroke:none;" d="M509 288L509 301L510 301L509 288z"/>
<path style="fill:#000000; stroke:none;" d="M510 288C510 312.963 499.964 339.704 489.362 362C462.899 417.652 418.967 464.278 362 489.333C338.985 499.456 313.522 510 288 510L288 512L512 512L512 288L510 288M0 289L0 512L224 512L224 510C199.608 510 172.854 500.678 151 490.262C95.2822 463.703 45.9685 418.74 21.8025 361C12.4736 338.711 2 313.608 2 289L0 289z"/>
<path style="fill:#8d8175; stroke:none;" d="M351 289C330.684 319.11 296.352 345.706 258 342.91C249.516 342.291 238.089 340.501 230 337.942C223.44 335.867 218.047 331.467 211 331L211 332C224.553 337.037 237.158 343.882 252.039 344.946C266.422 345.974 279.923 341.155 294 341C297.165 335.525 304.762 335.37 310 332.403C323.064 325.001 336.375 314.614 344.759 301.961C347.271 298.17 352.105 293.786 351 289z"/>
<path style="fill:#977b57; stroke:none;" d="M423 290C418.517 295.4 412.74 293.343 407 296.228C398.972 300.262 391.87 306.309 383.961 310.394C376.018 314.497 364.72 317.841 360 326L390 311L390 319L382 324C398.625 317.088 419.588 308.272 429 292L423 290z"/>
<path style="fill:#822502; stroke:none;" d="M431 290C410 312.8 382.721 319.012 359 337.425C340.963 351.426 331.727 370.641 315.884 386.518C298.011 404.429 269.841 414.592 245 409.182C213.198 402.256 205.844 367.457 177.576 357.75C166.426 353.921 152.706 360.963 141 359.83C124.996 358.281 116.835 349.029 104 341C105 359.373 124.27 371.212 140 375C144.256 371.65 150.74 371.288 156 370.414C165.63 368.813 180.516 367.017 188.701 373.789C194.533 378.613 195.78 385.271 200.533 390.561C207.14 397.913 212.923 403.311 218 412L219 412L219 406L226 414L228 412L229 412L230 416L239 415C241.06 420.744 247.129 419.432 252.004 420.951C266.675 425.524 281.659 423.345 296 418L297 423L298 423C301.812 415.151 304.69 406.816 310.329 400C314.7 394.716 321.038 391.593 325.415 386.548C330.192 381.042 333.11 373.696 338.191 368.075C340.824 365.162 343.644 360.968 347.054 358.988C351.768 356.25 357.89 356.947 360 351L364 353C372.97 333.816 388.958 340.176 403.729 329.545C414.528 321.772 418.601 308.797 428 301L426 298L431 290z"/>
<path style="fill:#5d1602; stroke:none;" d="M344 292C333.299 306.198 319.771 316.363 304 324.191C297.272 327.53 284.193 328.679 280 335C298.754 334.988 318.585 322.266 332.285 310.255C337.841 305.384 344.095 299.327 346 292L344 292z"/>
<path style="fill:#ecc97a; stroke:none;" d="M46 293L46 297L47 297L46 293z"/>
<path style="fill:#a5aaa7; stroke:none;" d="M153 293C145.333 308.382 129.803 301.856 116 301L116 306L117 306L120 306C124.824 303.772 128.235 307.608 133 308.501C141.057 310.01 150.506 303.315 153 296L154 296L154 304L155 304L155 293L153 293z"/>
<path style="fill:#ac9077; stroke:none;" d="M153 296C149.744 302.258 141.696 309.37 134 308.37C130.959 307.974 124.546 302.926 121.801 305.086C117.126 308.764 129.566 314.353 132.039 314.776C142.347 316.538 144.933 308.695 153 306L153 296z"/>
<path style="fill:#cdc6af; stroke:none;" d="M98 298L100 324C104.759 322.458 104.903 318.54 105 314L104 314L103 318L99 316L98 298z"/>
<path style="fill:#827162; stroke:none;" d="M177 299C178.245 307.522 187.071 314.593 193.989 318.996C207.533 327.615 222.144 338.953 239 339L239 338C213.452 329.955 198.039 313.822 177 299z"/>
<path style="fill:#cf914c; stroke:none;" d="M447 300L447 305L448 305L447 300z"/>
<path style="fill:#e9cb74; stroke:none;" d="M468 302L462 330C469.009 326.326 471.212 308.683 468 302z"/>
<path style="fill:#847010; stroke:none;" d="M507 303L507 311L508 311L507 303z"/>
<path style="fill:#eeda94; stroke:none;" d="M48 304L56 330L57 330L51 304L48 304z"/>
<path style="fill:#cbb27d; stroke:none;" d="M97 304L97 318L98 318L97 304z"/>
<path style="fill:#5f2c12; stroke:none;" d="M117 304C120.612 322.67 148.265 324.291 152 305L151 305C141.028 318.043 127.603 318.927 119 304L117 304z"/>
<path style="fill:#ae9b85; stroke:none;" d="M360 326L361 323C353.277 327.092 343.841 333.933 340 342L362 335.581L390 319L390 311L360 326z"/>
<path style="fill:#806b17; stroke:none;" d="M505 311L505 319L506 319L507 311L505 311z"/>
<path style="fill:#7f7d7d; stroke:none;" d="M120 312C122.942 322.201 138.922 325.029 145 316C133.696 319.76 129.701 318.746 120 312z"/>
<path style="fill:#a26337; stroke:none;" d="M125 312L128 314L125 312z"/>
<path style="fill:#806c5f; stroke:none;" d="M250 341L250 342C277.435 345.467 314.556 336.032 331 312C324.316 315.178 319.579 321.883 313 325.663C292.566 337.403 273.237 341 250 341z"/>
<path style="fill:#925b32; stroke:none;" d="M130 315L130 316L139 316L130 315z"/>
<path style="fill:#cb7e09; stroke:none;" d="M96 317C91.33 325.291 91.529 329.449 94 339C88.352 343.929 92.3356 354.779 95.591 360C99.9543 366.998 104.878 376.201 111.093 381.66C118.083 387.798 126.818 390.404 133 398L155 385L153 382C145.803 383.763 138.724 388.746 131 387.13C115.525 383.895 113.066 364.613 100 360L96.0394 340L96 317z"/>
<path style="fill:#6f3e22; stroke:none;" d="M252 339L252 340C261.584 340 272.605 341.505 282 339.518C297.208 336.301 312.574 326.926 325 318C318.15 317.006 309.531 326.36 303 328.745C287.124 334.542 269 339 252 339z"/>
<path style="fill:#b98335; stroke:none;" d="M97 318L99 329L100 329L97 318z"/>
<path style="fill:#c98823; stroke:none;" d="M130 426L131 413C123.436 409.315 117.397 400.232 111.834 394C91.7965 371.55 82.9823 345.68 69 320L63 325L64 321C52.899 320.038 66.3311 344.869 69.4144 350C81.4455 370.022 93.0788 388.102 108.196 406C114.254 413.172 121.083 422.35 130 426z"/>
<path style="fill:#877b26; stroke:none;" d="M503 320L503 326L504 326L503 320z"/>
<path style="fill:#a7a39e; stroke:none;" d="M105 327L109 326C113.971 332.484 124.059 335.319 130.91 339.468C134.788 341.815 137.289 344.935 142 345.695C161.428 348.832 176.431 342.343 193.888 355.702C198.371 359.133 196.253 363.548 198.25 368C202.423 377.304 214.61 390.49 225 392C228.794 385.673 245.51 392.038 252 393.335C262.025 395.338 271.194 392.182 281 391.248C291.822 390.219 300.761 393.707 309 384C302.887 385.151 297.779 383.151 292 383.777C268.427 386.333 245.882 392.524 223.83 379.66C204.571 368.426 194.322 344.899 170 342.129C159.831 340.971 149.152 343.06 139.285 339.236C128.933 335.224 120.17 325.308 109.926 321.902C105.972 320.587 105.238 323.951 105 327z"/>
<path style="fill:#a58264; stroke:none;" d="M99 322C101.995 345.678 123.651 360.509 147 358.91C157.278 358.207 171.091 352.42 180.999 355.769C197.112 361.214 202.556 385.314 216.184 394.436C225.828 400.89 236.038 396.481 246.004 397.304C278.502 399.988 315.156 401.55 331 366C319.015 371.509 310.892 384.629 299 391.189C292.195 394.943 286.218 393.674 279 394.184C265.742 395.122 253.116 395.211 240.001 393.415C233.628 392.543 229.494 397.321 223.17 393.126C214.436 387.333 205.481 378.702 199.844 369.83C197.413 366.003 198.85 361.732 196.796 358.069C194.566 354.094 186.12 350.371 181.985 348.532C168.828 342.677 156.519 347.875 143 345.695C133.446 344.155 116.431 332.417 109 326L105 327L105 323L99 322z"/>
<path style="fill:#b76606; stroke:none;" d="M96 323L100 360C115.415 369.033 118.406 391.782 141 386.691C145.002 385.79 149.189 383.575 153 382L153 385L153 386C170.448 384.575 179.851 380.942 197 388C186.704 363.827 155.587 378.587 137 378.946C119.642 379.281 110.636 367.738 102.91 354.285C99.2888 347.979 96.8337 340.358 98 333L102 335L96 323z"/>
<path style="fill:#d3b771; stroke:none;" d="M448 325L447 329L448 329L448 325z"/>
<path style="fill:#ddbc68; stroke:none;" d="M57 327C55.8315 333.591 58.1376 337.234 61 343L62 343L57 327z"/>
<path style="fill:#ce9c18; stroke:none;" d="M496 329L495 340L491 340C491.646 344.962 489.305 357.22 485 360L486 364L470 383L471 389C462.791 393.741 447.623 415.194 449 425C458.653 417.551 466.657 404.422 472.858 394C485.247 373.177 496.183 352.881 500 329L496 329z"/>
<path style="fill:#8e6900; stroke:none;" d="M501 329L501 332L502 332L501 329z"/>
<path style="fill:#71523a; stroke:none;" d="M224 332L224 333C238.591 338.946 250.297 341 266 341L266 340L224 332z"/>
<path style="fill:#8d3508; stroke:none;" d="M244 333L244 334C255.065 334.873 271.832 338.291 282 333L268 333.91L244 333z"/>
<path style="fill:#a03c02; stroke:none;" d="M98 333C96.1506 340.323 99.3609 348.831 102.91 355.17C106.341 361.296 109.062 367.802 114.594 372.562C131.976 387.52 155.829 371.343 175 374.304C186.137 376.024 190.291 381.257 198 388C193.921 368.317 172.479 367.506 156 370.247C151.173 371.05 143.272 371.11 140 375C124.544 370.303 105.975 359.165 104 341L108 344C105.928 339.077 103.032 335.043 98 333z"/>
<path style="fill:#d9990c; stroke:none;" d="M431 333L429 335L428 335L427 343L422 341L419 348C415.456 347.632 403.439 347.932 401.028 350.792C397.979 354.41 400.368 363.632 400.447 367.961C400.638 378.456 393.314 385.279 384 388C381.325 384.676 376.504 384.254 373.468 380.892C367.526 374.312 367.297 364.189 358 361C350.403 368.841 341.579 372.516 337 383C356.625 383 374.663 387.399 385 406C402.673 397.758 417.633 371.499 426.694 355C430.556 347.969 435.425 341.283 433 333L431 333z"/>
<path style="fill:#c8c6b7; stroke:none;" d="M377 337L377 338L384 338L377 337z"/>
<path style="fill:#d8eff5; stroke:none;" d="M370 352C378.544 352 385.592 353.16 387 343L397 356C404.097 338.921 365.527 327.803 370 352z"/>
<path style="fill:#be9974; stroke:none;" d="M386.667 338.333L387.333 338.667L386.667 338.333z"/>
<path style="fill:#eff1d5; stroke:none;" d="M440 338C437.44 343.102 432.741 346.019 434 352L430 353L431 356C411.995 367.853 403.646 392.866 385 406L387 414C405.569 403.266 420.12 379.885 431.061 362C435.537 354.683 441.234 346.713 442 338L440 338z"/>
<path style="fill:#b4c7ca; stroke:none;" d="M387 343C384.897 352.616 378.456 352 370 352L369 344C367.286 346.508 366.934 348.912 367.023 351.985C367.421 365.689 388.271 367.212 395.154 357.443C398.732 352.364 391.494 344.374 387 343z"/>
<path style="fill:#ae5104; stroke:none;" d="M453 345C437.474 368.561 425.777 391.84 404.884 411.731C400.478 415.926 385.181 425.581 395 431C412.519 410.763 433.936 394.207 445.304 369C447.924 363.191 455.116 351.115 453 345z"/>
<path style="fill:#d5b477; stroke:none;" d="M80.3333 346.667L80.6667 347.333L80.3333 346.667z"/>
<path style="fill:#aa8880; stroke:none;" d="M366 348L366 356L367 356L366 348z"/>
<path style="fill:#ad5708; stroke:none;" d="M365 349L364 353L360 351C356.721 356.562 351.086 355.967 346.129 358.988C338.813 363.447 327.584 377.32 327 386L352.729 360.646L361.367 357.4L371 367L365 349z"/>
<path style="fill:#d99c47; stroke:none;" d="M398 351L398 358L399 358L398 351z"/>
<path style="fill:#9f5d30; stroke:none;" d="M120 353L126 356L126 355L120 353z"/>
<path style="fill:#a8713f; stroke:none;" d="M167 355L167 357L192 365C185.345 354.973 178.098 355 167 355z"/>
<path style="fill:#d6b08a; stroke:none;" d="M396 356L395 363L398 356L396 356z"/>
<path style="fill:#a45927; stroke:none;" d="M130 357L130 358L136 359L130 357z"/>
<path style="fill:#a3592a; stroke:none;" d="M138 359L138 360L165 358L138 359z"/>
<path style="fill:#a4a092; stroke:none;" d="M367 357C370.254 371.019 393.818 373.622 396 358L378 363.555L367 357z"/>
<path style="fill:#d1b36a; stroke:none;" d="M431 361L429 366L430 366L431 361z"/>
<path style="fill:#553b00; stroke:none;" d="M23 364L23 367L24 367L23 364z"/>
<path style="fill:#884d25; stroke:none;" d="M333 364L312 390C318.46 386.554 333.627 371.622 333 364z"/>
<path style="fill:#973101; stroke:none;" d="M368 366L374 381C385.611 382.707 390.971 380.679 394 368L378.004 371.563L368 366z"/>
<path style="fill:#af8a66; stroke:none;" d="M374 368L374 369C381.342 372.098 387.314 371.032 394 367L374 368z"/>
<path style="fill:#c27841; stroke:none;" d="M372 368C375.661 372.149 379.752 371.997 385 372L385 371L372 368z"/>
<path style="fill:#8d4e2b; stroke:none;" d="M203 378L204 382L205 382L203 378z"/>
<path style="fill:#cda05c; stroke:none;" d="M167 382L167 383L181 383L167 382z"/>
<path style="fill:#d5941b; stroke:none;" d="M112 383C117.162 390.803 125.45 402.002 134 406L144 393L133 398C128.949 390.482 119.848 385.617 112 383z"/>
<path style="fill:#d5e5eb; stroke:none;" d="M147 392L154 392L148 403L153 401C157.056 416.674 171.3 425.902 186.961 418.87C192.371 416.441 195.5 411.178 201 409L200 407L203 407C203.095 402.785 205.831 397.05 203.307 393.21C193.592 378.43 157.423 379.139 147 392z"/>
<path style="fill:#e1eff5; stroke:none;" d="M317 408L322 408L322 412C328.17 413.66 332.916 418.731 339 420.486C352.914 424.501 362.143 409.749 364 398C378.565 403.661 374.484 423.196 386 429L380.671 414L371 394L377 396C367.277 382.913 345.856 380.011 331 384.573C324.868 386.456 316.367 390.996 315.042 398C314.43 401.236 316.355 404.867 317 408z"/>
<path style="fill:#c59038; stroke:none;" d="M187 384L187 385L193 386L187 384z"/>
<path style="fill:#c89954; stroke:none;" d="M151 387L151 388L155 387L151 387z"/>
<path style="fill:#e4f1f7; stroke:none;" d="M165 412C163.811 406.445 169.31 394.179 176.725 395.912C181.277 396.976 188.306 405.021 185.551 409.66C183.943 412.368 180.476 414.177 178 416L178 417L184 417L193 391L181 389L181 388L183 388C172.953 383.823 169.419 391.686 165.961 399C164.087 402.961 161.027 408.528 165 412z"/>
<path style="fill:#af7d4a; stroke:none;" d="M197 388L200 390L197 388z"/>
<path style="fill:#a1917c; stroke:none;" d="M225 392L221 392L221 393C228.513 396.246 231.849 393.166 239.004 393.563C259.572 394.706 279.71 396.199 300 392C292.676 389.141 280.626 391.644 273 392.795C262.348 394.402 252.559 393.352 242 391.857C236.841 391.127 227.638 384.524 225 392z"/>
<path style="fill:#f6fbf7; stroke:none;" d="M137 427L154 392C143.053 392.008 135.314 400.732 132.188 411.17C130.362 417.268 128.934 426.372 137 427z"/>
<path style="fill:#bdccd3; stroke:none;" d="M376 414L380 423L381 423C378.415 413.355 374.769 400.846 364 398C361.283 408.547 353.433 424.063 340 420.472C333.514 418.738 328.805 413.026 322 412L322 408L317 408C316.106 400.668 314.589 398.481 319 392C307.617 397.309 300.555 418.04 315.914 423.246C338.352 430.851 356.11 425.67 376 414z"/>
<path style="fill:#a9702b; stroke:none;" d="M284 403L247 405.91L227 401C232.479 407.235 242.06 408.997 250 409C266.905 409.007 293.494 410.642 304 394C298.426 394.023 285.709 397.132 284 403z"/>
<path style="fill:#f6fdf8; stroke:none;" d="M371 394C371.755 402.316 378.217 408.348 381.105 416C383.25 421.684 382.001 426.94 389 429C389 413.098 386.273 400.526 371 394z"/>
<path style="fill:#f4ffff; stroke:none;" d="M173.289 395.917C160.853 401.231 162.813 421.742 177.91 416.146C181.397 414.853 186.738 411.1 186.708 406.975C186.67 401.773 178.719 393.597 173.289 395.917z"/>
<path style="fill:#b9c8d0; stroke:none;" d="M205 395L200 407L201 409C194.917 410.485 191.701 416.356 185.985 418.87C169.809 425.987 158.772 415.175 153 401C142.826 403.83 137.968 417.343 137 427L131 426L127 429L127 430L138 433C138.823 429.01 139.02 418.645 144.1 417.773C151.357 416.527 159.774 425.966 167 427.544C179.998 430.382 197.97 427.521 208.945 419.965C218.416 413.444 213.683 399.584 205 395z"/>
<path style="fill:#a67942; stroke:none;" d="M219 396C233.837 413.247 265.205 403.859 284 403L289 399L267.985 398.971L244.039 397.093L232.999 398.89L219 396z"/>
<path style="fill:#b49e97; stroke:none;" d="M209 398L211 401L209 398z"/>
<path style="fill:#f5feff; stroke:none;" d="M341 398.652C326.799 403.02 335.418 420.954 347.715 416.436C360.564 411.715 353.403 394.837 341 398.652z"/>
<path style="fill:#adb3b6; stroke:none;" d="M214 405C213.936 428.204 179.402 431.687 162.001 425.735C156.485 423.848 149.842 415.549 143.305 417.568C139.038 418.885 139.282 426.431 139 430L140 430C143.765 422.679 150.896 426.908 157.001 428.83C170.532 433.09 193.02 434.603 205 425.728C212.124 420.451 218.063 414.682 214 405z"/>
<path style="fill:#b1b7b8; stroke:none;" d="M306 405C304.606 410.856 303.05 421.73 307.92 426.397C311.28 429.618 318.709 428.902 323 429.015C334.249 429.309 344.579 432.623 355.91 429.45C364.023 427.178 369.044 421.1 378 421L381 426L376 414C364.399 418.788 352.973 427.407 340.004 427.891C335.821 428.047 332.085 425.899 327.996 425.286C322.308 424.433 314.808 423.989 310.573 419.529C306.896 415.657 308.415 409.542 306 405z"/>
<path style="fill:#953003; stroke:none;" d="M219 406C219 419.022 227.116 421.407 238.985 425.155C259.151 431.522 277.055 430.093 297 423L296 418C280.294 422.199 267.817 424.991 252.015 420.566C247.01 419.164 242.01 420.005 239 415L230 416L229 412L228 412L226 414L219 406z"/>
<path style="fill:#a4a49d; stroke:none;" d="M215 407C214.981 431.382 181.84 435.007 163 430.53C155.558 428.762 148.733 423.821 141 426L141 427C147.256 427.32 152.09 430.536 158.015 431.985C171.727 435.34 189.707 435.899 203 430.421C212.48 426.514 223.846 418.125 215 407z"/>
<path style="fill:#964411; stroke:none;" d="M246 409L246 410L277 409L246 409z"/>
<path style="fill:#9d928c; stroke:none;" d="M304 408C300.512 417.359 297.397 428.09 309 431L309 432L304 432L304 433C310.844 433.057 317.198 435.442 324 435.91C343.295 437.239 363.994 436.531 383 433L378 421C368.522 421.032 363.535 427.112 354.961 429.45C344.899 432.194 335.987 429.79 326 429.09C320.714 428.719 311.829 430.106 307.92 425.682C303.369 420.533 306.398 413.716 304 408z"/>
<path style="fill:#968c82; stroke:none;" d="M218 412C217.718 437.251 175.142 436.315 158.015 431.751C151.63 430.049 146.846 427.061 140 427L138 433C161.792 437.483 185.023 435.198 209 435L209 434L203 434L203 433C215.081 430.757 225.099 426.772 218 412z"/>
<path style="fill:#dec490; stroke:none;" d="M389 412L388 416L389 416L391 412L389 412z"/>
<path style="fill:#d8b76b; stroke:none;" d="M130 417L130 429L131 429L130 417z"/>
<path style="fill:#8d6e53; stroke:none;" d="M300 417L297 430L309 432L309 431C299.783 427.966 303.142 424.487 300 417z"/>
<path style="fill:#d9ceb3; stroke:none;" d="M389 417L389 429L381 426C382.591 432.475 386.53 431.991 392 430L389 417z"/>
<path style="fill:#8e7661; stroke:none;" d="M220 418C219.886 430.697 213.299 430.547 203 433L203 434C212.831 434 225.625 431.409 220 418z"/>
<path style="fill:#b15202; stroke:none;" d="M218 432C229.821 430.645 226.471 438.571 227 447L221 447L221 448L231 448L229 434C239.328 433.589 246.79 438.359 256.715 439.562C263.347 440.367 271.395 438.234 278 437.375C289.006 435.944 296.661 433.847 299 422C286.496 425.807 271.537 432.102 258.09 429.741C249.951 428.311 241.675 426.503 234 423.211C231.03 421.938 226.777 417.638 223.318 418.737C220.458 419.645 219.141 429.199 218 432z"/>
<path style="fill:#a1845b; stroke:none;" d="M129 426L128 429L129 426z"/>
<path style="fill:#e7eded; stroke:none;" d="M225 433C217.921 430.237 205.613 435.102 198 435.83C180.263 437.526 162.563 437.048 145 434.081C139.755 433.195 125.107 425.788 124.192 435.015C123.388 443.13 141.743 438.247 148 438.95C173.217 441.783 201.346 445.044 225 433z"/>
<path style="fill:#cfd0cd; stroke:none;" d="M296 430C293.981 438.951 309.278 441.829 316 442C327.301 442.287 338.642 443.911 350 442.83C361.663 441.72 373.334 438.033 385 438L385 437C371.603 437.001 358.399 440.375 345 440.961C336.59 441.328 328.327 439.151 320 438.155C313.438 437.37 299.437 438.174 298 430L296 430z"/>
<path style="fill:#eff1eb; stroke:none;" d="M297 431C300.479 437.822 311.235 437.291 318 438.05C337.746 440.267 355.194 441.074 375 437.615C380.684 436.622 393.922 445.588 395.663 437.941C398.411 425.87 380.272 433.424 375 434.049C347.886 437.268 323.784 434.607 297 431z"/>
<path style="fill:#bdb7b1; stroke:none;" d="M221 431L221 432L225 432C216.868 442.26 196.3 443 184 443L184 444C194.826 444 225.487 446.453 226 431L221 431z"/>
<path style="fill:#b2a093; stroke:none;" d="M218.667 432.333L219.333 432.667L218.667 432.333z"/>
<path style="fill:#a59b8f; stroke:none;" d="M226 432C224.373 441.998 210.798 441.777 203 443.335C192.472 445.438 177.64 447.02 167 445.714C152.569 443.941 141.045 439.215 127 443L127 444C152.625 448.757 180.931 448.102 207 446.961C214.966 446.612 234.429 444.34 226 432z"/>
<path style="fill:#bab9b8; stroke:none;" d="M294 432C294.77 442.128 308.711 443.446 317 444.575C329.607 446.292 345.352 446.351 358 444.87C364.134 444.152 369.651 441.307 376 441.039C381.56 440.805 386.534 442.72 392 443L392 442C388.814 441.07 386.316 438.638 382.985 438.148C375.492 437.046 366.449 440.603 359 441.701C346.421 443.554 333.611 443.371 321 442.17C310.873 441.205 301.182 440.132 294 432z"/>
<path style="fill:#cc7909; stroke:none;" d="M229 434C229 437.668 227.987 443.49 230.742 446.401C234.863 450.757 243.659 450 249 450C264.47 450 279.728 448.317 295 448L297 444L297 443L293 435L258 439.165L229 434z"/>
<path style="fill:#a08163; stroke:none;" d="M293 433C293.732 447.26 304.697 446.738 316 447.015C330.654 447.374 345.282 448 360 448L360 447C341.349 447 304.536 450.847 293 433z"/>
<path style="fill:#b7aca6; stroke:none;" d="M308 433L308 434L312 434L308 433z"/>
<path style="fill:#c5c6ca; stroke:none;" d="M126 443C129.572 442.732 132.523 440.389 136.015 440.328C145.856 440.155 156.207 444.511 166 445.714C174.268 446.729 180.203 444.21 188 443.144C199.453 441.577 214.081 441.734 224 435C216.26 433.121 201.444 439.608 193 440.718C176.772 442.852 162.071 440.764 146 438.576C139.279 437.661 130.469 436.852 126 443z"/>
<path style="fill:#b6afac; stroke:none;" d="M361 435L361 436L367 436L361 435z"/>
<path style="fill:#dad2cb; stroke:none;" d="M168 436L168 437L189 437L168 436z"/>
<path style="fill:#a1907d; stroke:none;" d="M322 445L322 446L390 444C379.908 437.34 368.491 442.895 358 444.737C346.632 446.732 333.543 445 322 445z"/>
<path style="fill:#781700; stroke:none;" d="M191 451L191 453L208 458L209 455L218 456C218.63 450.245 221.168 447.4 227 447L227 443L191 451z"/>
<path style="fill:#461405; stroke:none;" d="M295 444L295 448L307 449L295 444z"/>
<path style="fill:#926d43; stroke:none;" d="M309 447L309 448L341 451L357 453L358 453C366.515 448.832 383.076 451.888 389 444L355 447.961L309 447z"/>
<path style="fill:#976c40; stroke:none;" d="M132 445L132 446L164 452L177 450.999L207 450L207 448L166 448.91L132 445z"/>
<path style="fill:#9d8064; stroke:none;" d="M138 445L138 446C164.119 448.6 190.686 450.326 217 447L192 447L138 445z"/>
<path style="fill:#78432a; stroke:none;" d="M217 446L217 447L222 446L217 446z"/>
<path style="fill:#7b1a03; stroke:none;" d="M306 447L301 449L301 457L314 459.856L345 453L325 450.83L306 447z"/>
<path style="fill:#b17a56; stroke:none;" d="M228 455L228 454L226 449L237 449C233.689 447.611 224.792 446.537 221.761 449.013C216.946 452.946 225.601 454.927 228 455z"/>
<path style="fill:#b88355; stroke:none;" d="M288 448L288 449L295 449C293.909 455.847 287.917 455.951 282 456C286.014 457.684 296.819 457.769 300.381 454.822C304.664 451.278 297.793 448.222 294.998 448.044C292.679 447.896 290.323 448 288 448z"/>
<path style="fill:#a83d02; stroke:none;" d="M219 449L218 456L204.96 461.441L177 455L191 452L191 451L164 450C169.43 457.633 188.023 461.451 196.83 464.363C235.483 477.141 276.641 478.51 316 467.421C326.79 464.38 350.733 460.97 357 451L337 451L337 452L345 452L345 453C330.52 454.183 314.564 465.689 301 455L296 456L296 457L300 463C274.969 473.198 247.2 469.002 222 463L224 456L221 449L219 449z"/>
<path style="fill:#e1c89a; stroke:none;" d="M226 449C226.543 455.813 233.09 456.496 239 456.91C253.197 457.906 267.766 457 282 457L282 456C265.586 456 242.429 460.065 228 451L237 450L226 449z"/>
<path style="fill:#debb93; stroke:none;" d="M284 449L284 450L292 450C290.123 453.578 287.968 454.557 284 455L284 456C289.734 455.881 294.49 455.547 295 449L284 449z"/>
<path style="fill:#f3eaca; stroke:none;" d="M228 451C238.613 460.465 263.664 456.064 277 455.999C282.601 455.972 290.046 456.187 292 450L254 451.961L228 451z"/>
<path style="fill:#db9e35; stroke:none;" d="M240 450L240 451L270 451L240 450z"/>
<path style="fill:#e7bc7d; stroke:none;" d="M270 450L270 451L282 451L270 450z"/>
<path style="fill:#efcc90; stroke:none;" d="M249 451L249 452L265 452L249 451z"/>
<path style="fill:#992204; stroke:none;" d="M177 455C188.392 454.606 204.885 469.237 213 456L209 455L208 458C201.656 453.983 182.444 447.295 177 455z"/>
<path style="fill:#cb770f; stroke:none;" d="M221 453L224 456L222 463C243.033 470.712 279.541 474.463 300 463C296.901 452.819 286.224 457.347 278 457.91C262.219 458.991 235.103 460.843 221 453z"/>
<path style="fill:#d38327; stroke:none;" d="M171 454L174 456L171 454z"/>
<path style="fill:#cb9950; stroke:none;" d="M250 457L250 458L282 458L250 457z"/>
<path style="fill:#ecc447; stroke:none;" d="M105 463L111 467L111 466L105 463z"/>
<path style="fill:#b3721a; stroke:none;" d="M140 482L140 483L143 488L151 489L151 488L149 488L149 487L221 488.985L369 487L374 480C345.322 483.862 317.98 483.818 289 484.86C238.923 486.66 189.548 488.038 140 482z"/>
<path style="fill:#a15705; stroke:none;" d="M149 487L149 488L149 490C174.485 500.61 203.716 494.234 231 493.039C254.004 492.032 279.084 490.989 302 493.17C310.97 494.023 320.062 494.216 329 495.174C333.589 495.665 338.358 498.176 343 497.636C350.815 496.726 358.817 490.991 366 488C360.7 484.4 353.008 487.499 347 487.91C334.116 488.793 320.915 488 308 488C254.967 488 201.692 487.151 149 487z"/>
<path style="fill:#573800; stroke:none;" d="M366.667 487.333L367.333 487.667L366.667 487.333z"/>
<path style="fill:#bf7a17; stroke:none;" d="M184 495L184 496L281 495L328 496C315.645 490.815 296.298 493 283 493C249.9 493 217.023 495 184 495z"/>
<path style="fill:#d6a22a; stroke:none;" d="M167 496L167 498L223 508L223 509L218 509L218 510C239.256 511.38 261.374 513.752 282.961 511.942C290.429 511.316 298.319 508.376 306 507.385C314.248 506.321 335.048 504.104 340 497L313 496.91L167 496z"/>
<path style="fill:#5b3002; stroke:none;" d="M348.667 495.333L349.333 495.667L348.667 495.333z"/>
<path style="fill:#7d4905; stroke:none;" d="M170.667 498.333L171.333 498.667L170.667 498.333z"/>
<path style="fill:#936d1c; stroke:none;" d="M185 503L185 504L190 504L185 503z"/>
<path style="fill:#bb9e40; stroke:none;" d="M321 503L321 504L327 504L321 503z"/>
<path style="fill:#84621c; stroke:none;" d="M193 505L193 506L198 506L193 505z"/>
<path style="fill:#856c2c; stroke:none;" d="M313 505L313 506L319 506L313 505z"/>
<path style="fill:#7f6b30; stroke:none;" d="M201 507L201 508L209 508L201 507z"/>
<path style="fill:#a48123; stroke:none;" d="M303 507L303 508L309 508L303 507z"/>
<path style="fill:#7d6b26; stroke:none;" d="M310 507L311 508L310 507z"/>
<path style="fill:#f8c83a; stroke:none;" d="M211 508L211 509L223 509L211 508z"/>
<path style="fill:#6f470b; stroke:none;" d="M211 509L211 510L218 510L211 509z"/>
<path style="fill:#6e5614; stroke:none;" d="M288 509L288 510L301 510L288 509z"/>
<path style="fill:#96731e; stroke:none;" d="M287.333 510.667L287.667 511.333L287.333 510.667z"/>
</svg>
